<svg width="632" height="879" viewBox="0 0 632 879" fill="none" xmlns="http://www.w3.org/2000/svg">
<path d="M44 31H589V201H44V31Z" fill="#65402A"/>
<path d="M43.6887 201H589L623 234H8.68872L43.6887 201Z" fill="#916143"/>
<path d="M44 0H589L632 22H0L44 0Z" fill="#916143"/>
<path d="M9 31H44V201L9 234V31Z" fill="#815539"/>
<path d="M623.02 31H589V201L623.02 234V31Z" fill="#815539"/>
<path d="M9 234H623.02V243H9V234Z" fill="#7A4D30"/>
<rect y="22" width="632" height="9" fill="#7A4D30"/>
<path d="M44 243H589V413H44V243Z" fill="#65402A"/>
<path d="M44 413H589L623.02 446H9L44 413Z" fill="#916143"/>
<path d="M9 243H44V413L9 446V243Z" fill="#815539"/>
<path d="M623.02 243H589V413L623.02 446V243Z" fill="#815539"/>
<path d="M9 446H623.02V455H9V446Z" fill="#7A4D30"/>
<path d="M44 455H589V625H44V455Z" fill="#65402A"/>
<path d="M44 625H589L623.02 658H9L44 625Z" fill="#916143"/>
<path d="M9 455H44V625L9 658V455Z" fill="#815539"/>
<path d="M623.02 455H589V625L623.02 658V455Z" fill="#815539"/>
<rect x="9" y="658" width="614" height="9" fill="#7A4D30"/>
<path d="M44 667H589V837H44V667Z" fill="#65402A"/>
<path d="M44 837H589L623.02 870H9L44 837Z" fill="#916143"/>
<path d="M9 667H44V837L9 870V667Z" fill="#815539"/>
<path d="M623 667H589V837L623 870V667Z" fill="#815539"/>
<path d="M9 870H623V879H9V870Z" fill="#7A4D30"/>
<path d="M8.5 31.5V878.5H0.5V31.5H8.5Z" fill="#7A4D30" stroke="#7A4D30"/>
<rect x="623" y="31" width="9" height="848" fill="#7A4D30"/>
<rect x="155.593" y="659" width="325.783" height="48" fill="#F4C542" stroke="#F0544F" stroke-width="2"/>
<path d="M214.327 672.96H219.095C219.5 672.96 219.788 673.056 219.959 673.248C220.151 673.419 220.247 673.707 220.247 674.112V686.528C220.247 687.211 220.215 687.851 220.151 688.448C220.108 689.024 219.948 689.707 219.671 690.496L218.071 694.848C217.964 695.168 217.804 695.445 217.591 695.68C217.399 695.893 217.132 696 216.791 696H212.535C212.193 696 211.884 695.925 211.607 695.776C211.329 695.627 211.148 695.381 211.063 695.04L209.591 689.824C209.527 689.611 209.441 689.472 209.335 689.408C209.249 689.323 209.143 689.28 209.015 689.28H208.727C208.599 689.28 208.481 689.323 208.375 689.408C208.289 689.472 208.215 689.611 208.151 689.824L206.647 695.04C206.561 695.36 206.401 695.605 206.167 695.776C205.932 695.925 205.644 696 205.303 696H201.079C200.737 696 200.439 695.893 200.183 695.68C199.948 695.467 199.777 695.189 199.671 694.848L198.071 690.432C197.793 689.643 197.623 688.96 197.559 688.384C197.516 687.787 197.495 687.147 197.495 686.464V674.112C197.495 673.707 197.58 673.419 197.751 673.248C197.943 673.056 198.241 672.96 198.647 672.96H203.575C203.98 672.96 204.268 673.056 204.439 673.248C204.631 673.419 204.727 673.707 204.727 674.112V685.888L206.583 681.856C206.753 681.493 206.977 681.237 207.255 681.088C207.532 680.939 207.873 680.864 208.279 680.864H209.623C210.028 680.864 210.369 680.939 210.647 681.088C210.924 681.237 211.148 681.493 211.319 681.856L213.175 685.888V674.112C213.175 673.707 213.26 673.419 213.431 673.248C213.623 673.056 213.921 672.96 214.327 672.96ZM230.488 696H225.528C225.123 696 224.824 695.915 224.632 695.744C224.462 695.552 224.376 695.253 224.376 694.848V674.112C224.376 673.707 224.462 673.419 224.632 673.248C224.824 673.056 225.123 672.96 225.528 672.96H230.488C230.894 672.96 231.182 673.056 231.352 673.248C231.544 673.419 231.64 673.707 231.64 674.112V681.056H236.984V674.112C236.984 673.707 237.07 673.419 237.24 673.248C237.432 673.056 237.731 672.96 238.136 672.96H243.096C243.502 672.96 243.79 673.056 243.96 673.248C244.152 673.419 244.248 673.707 244.248 674.112V694.848C244.248 695.253 244.152 695.552 243.96 695.744C243.79 695.915 243.502 696 243.096 696H238.136C237.731 696 237.432 695.915 237.24 695.744C237.07 695.552 236.984 695.253 236.984 694.848V687.744H231.64V694.848C231.64 695.253 231.544 695.552 231.352 695.744C231.182 695.915 230.894 696 230.488 696ZM264.658 696H249.81C249.404 696 249.106 695.915 248.914 695.744C248.743 695.552 248.658 695.253 248.658 694.848V674.112C248.658 673.707 248.743 673.419 248.914 673.248C249.106 673.056 249.404 672.96 249.81 672.96H264.658C265.063 672.96 265.351 673.056 265.522 673.248C265.714 673.419 265.81 673.707 265.81 674.112V677.856C265.81 678.261 265.714 678.56 265.522 678.752C265.351 678.923 265.063 679.008 264.658 679.008H255.826V681.472H262.066C262.471 681.472 262.759 681.568 262.93 681.76C263.122 681.931 263.218 682.219 263.218 682.624V686.048C263.218 686.453 263.122 686.752 262.93 686.944C262.759 687.115 262.471 687.2 262.066 687.2H255.826V689.952H264.658C265.063 689.952 265.351 690.048 265.522 690.24C265.714 690.411 265.81 690.699 265.81 691.104V694.848C265.81 695.253 265.714 695.552 265.522 695.744C265.351 695.915 265.063 696 264.658 696ZM276.827 678.72V682.816H279.227C279.782 682.816 280.155 682.677 280.347 682.4C280.539 682.101 280.635 681.739 280.635 681.312V680.224C280.635 679.797 280.539 679.445 280.347 679.168C280.155 678.869 279.782 678.72 279.227 678.72H276.827ZM275.675 696H270.747C270.342 696 270.043 695.915 269.851 695.744C269.68 695.552 269.595 695.253 269.595 694.848V674.112C269.595 673.707 269.68 673.419 269.851 673.248C270.043 673.056 270.342 672.96 270.747 672.96H281.403C283.792 672.96 285.435 673.461 286.331 674.464C287.248 675.445 287.707 676.725 287.707 678.304V679.776C287.707 680.672 287.568 681.44 287.291 682.08C287.035 682.699 286.576 683.147 285.915 683.424C287.067 683.552 287.995 684.021 288.699 684.832C289.424 685.643 289.787 686.72 289.787 688.064V694.848C289.787 695.253 289.691 695.552 289.499 695.744C289.328 695.915 289.04 696 288.635 696H283.675C283.27 696 282.971 695.915 282.779 695.744C282.608 695.552 282.523 695.253 282.523 694.848V689.952C282.523 689.483 282.427 689.141 282.235 688.928C282.064 688.693 281.755 688.576 281.307 688.576H276.827V694.848C276.827 695.253 276.731 695.552 276.539 695.744C276.368 695.915 276.08 696 275.675 696ZM309.376 696H294.528C294.123 696 293.824 695.915 293.632 695.744C293.462 695.552 293.376 695.253 293.376 694.848V674.112C293.376 673.707 293.462 673.419 293.632 673.248C293.824 673.056 294.123 672.96 294.528 672.96H309.376C309.782 672.96 310.07 673.056 310.24 673.248C310.432 673.419 310.528 673.707 310.528 674.112V677.856C310.528 678.261 310.432 678.56 310.24 678.752C310.07 678.923 309.782 679.008 309.376 679.008H300.544V681.472H306.784C307.19 681.472 307.478 681.568 307.648 681.76C307.84 681.931 307.936 682.219 307.936 682.624V686.048C307.936 686.453 307.84 686.752 307.648 686.944C307.478 687.115 307.19 687.2 306.784 687.2H300.544V689.952H309.376C309.782 689.952 310.07 690.048 310.24 690.24C310.432 690.411 310.528 690.699 310.528 691.104V694.848C310.528 695.253 310.432 695.552 310.24 695.744C310.07 695.915 309.782 696 309.376 696ZM332.069 696H326.885C326.48 696 326.181 695.915 325.989 695.744C325.818 695.552 325.733 695.253 325.733 694.848V679.136H321.029C320.624 679.136 320.325 679.051 320.133 678.88C319.962 678.688 319.877 678.389 319.877 677.984V674.112C319.877 673.707 319.962 673.419 320.133 673.248C320.325 673.056 320.624 672.96 321.029 672.96H337.925C338.33 672.96 338.618 673.056 338.789 673.248C338.981 673.419 339.077 673.707 339.077 674.112V677.984C339.077 678.389 338.981 678.688 338.789 678.88C338.618 679.051 338.33 679.136 337.925 679.136H333.221V694.848C333.221 695.253 333.125 695.552 332.933 695.744C332.762 695.915 332.474 696 332.069 696ZM361.553 689.952C361.553 690.933 361.403 691.829 361.105 692.64C360.827 693.429 360.315 694.112 359.569 694.688C358.843 695.243 357.83 695.68 356.529 696C355.249 696.32 353.617 696.48 351.633 696.48C349.649 696.48 348.006 696.32 346.705 696C345.403 695.68 344.379 695.243 343.633 694.688C342.907 694.112 342.395 693.429 342.097 692.64C341.819 691.829 341.681 690.933 341.681 689.952V679.04C341.681 678.059 341.819 677.173 342.097 676.384C342.395 675.573 342.907 674.88 343.633 674.304C344.379 673.728 345.403 673.28 346.705 672.96C348.006 672.64 349.649 672.48 351.633 672.48C353.617 672.48 355.249 672.64 356.529 672.96C357.83 673.28 358.843 673.728 359.569 674.304C360.315 674.88 360.827 675.573 361.105 676.384C361.403 677.173 361.553 678.059 361.553 679.04V689.952ZM348.945 688.8C348.945 689.227 349.105 689.589 349.425 689.888C349.745 690.165 350.481 690.304 351.633 690.304C352.785 690.304 353.521 690.165 353.841 689.888C354.161 689.589 354.321 689.227 354.321 688.8V680.192C354.321 679.787 354.161 679.445 353.841 679.168C353.521 678.869 352.785 678.72 351.633 678.72C350.481 678.72 349.745 678.869 349.425 679.168C349.105 679.445 348.945 679.787 348.945 680.192V688.8ZM386.254 696H373.966C373.561 696 373.262 695.915 373.07 695.744C372.899 695.552 372.814 695.253 372.814 694.848V674.112C372.814 673.707 372.899 673.419 373.07 673.248C373.262 673.056 373.561 672.96 373.966 672.96H384.174C386.265 672.96 387.811 673.365 388.814 674.176C389.817 674.965 390.318 676.192 390.318 677.856V679.392C390.318 680.288 390.158 681.024 389.838 681.6C389.539 682.155 389.07 682.571 388.43 682.848C389.795 682.976 390.809 683.445 391.47 684.256C392.131 685.067 392.462 686.251 392.462 687.808V690.752C392.462 692.544 391.95 693.867 390.926 694.72C389.923 695.573 388.366 696 386.254 696ZM380.014 678.4V681.856H382.734C383.139 681.856 383.438 681.749 383.63 681.536C383.843 681.323 383.95 681.003 383.95 680.576V679.68C383.95 679.253 383.843 678.933 383.63 678.72C383.438 678.507 383.139 678.4 382.734 678.4H380.014ZM380.014 686.784V690.56H384.174C384.579 690.56 384.878 690.453 385.07 690.24C385.283 690.027 385.39 689.707 385.39 689.28V688.032C385.39 687.605 385.283 687.296 385.07 687.104C384.878 686.891 384.579 686.784 384.174 686.784H380.014ZM415.617 689.952C415.617 690.933 415.468 691.829 415.169 692.64C414.892 693.429 414.38 694.112 413.633 694.688C412.908 695.243 411.905 695.68 410.625 696C409.345 696.32 407.713 696.48 405.729 696.48C403.745 696.48 402.113 696.32 400.833 696C399.553 695.68 398.54 695.243 397.793 694.688C397.068 694.112 396.556 693.429 396.257 692.64C395.98 691.829 395.841 690.933 395.841 689.952V674.112C395.841 673.707 395.927 673.419 396.097 673.248C396.289 673.056 396.588 672.96 396.993 672.96H402.017C402.423 672.96 402.711 673.056 402.881 673.248C403.073 673.419 403.169 673.707 403.169 674.112V688.704C403.169 689.131 403.329 689.493 403.649 689.792C403.969 690.069 404.684 690.208 405.793 690.208C406.924 690.208 407.649 690.069 407.969 689.792C408.289 689.493 408.449 689.131 408.449 688.704V674.112C408.449 673.707 408.535 673.419 408.705 673.248C408.897 673.056 409.196 672.96 409.601 672.96H414.465C414.871 672.96 415.159 673.056 415.329 673.248C415.521 673.419 415.617 673.707 415.617 674.112V689.952ZM431.556 696H426.372C425.967 696 425.668 695.915 425.476 695.744C425.306 695.552 425.22 695.253 425.22 694.848V690.752L420.324 684.192C419.834 683.531 419.503 682.955 419.332 682.464C419.183 681.973 419.108 681.237 419.108 680.256V674.112C419.108 673.707 419.194 673.419 419.364 673.248C419.556 673.056 419.855 672.96 420.26 672.96H425.188C425.594 672.96 425.882 673.056 426.052 673.248C426.244 673.419 426.34 673.707 426.34 674.112V679.36C426.34 679.573 426.351 679.797 426.372 680.032C426.394 680.267 426.479 680.491 426.628 680.704L428.1 683.008C428.207 683.2 428.314 683.339 428.42 683.424C428.548 683.509 428.698 683.552 428.868 683.552H429.188C429.359 683.552 429.498 683.509 429.604 683.424C429.732 683.339 429.85 683.2 429.956 683.008L431.428 680.704C431.578 680.491 431.663 680.267 431.684 680.032C431.706 679.797 431.716 679.573 431.716 679.36V674.112C431.716 673.707 431.802 673.419 431.972 673.248C432.164 673.056 432.463 672.96 432.868 672.96H437.636C438.042 672.96 438.33 673.056 438.5 673.248C438.692 673.419 438.788 673.707 438.788 674.112V680.256C438.788 681.237 438.703 681.973 438.532 682.464C438.362 682.955 438.042 683.531 437.572 684.192L432.708 690.784V694.848C432.708 695.253 432.612 695.552 432.42 695.744C432.25 695.915 431.962 696 431.556 696Z" fill="#F0544F"/>
<rect x="154.593" y="708" width="327.783" height="1" fill="#C2352B"/>
<path d="M536.006 23V71H98.6375V23H536.006Z" fill="#F4C542" stroke="#F0544F" stroke-width="2"/>
<path d="M154.998 58H150.038C149.633 58 149.334 57.9147 149.142 57.744C148.971 57.552 148.886 57.2533 148.886 56.848V36.112C148.886 35.7067 148.971 35.4187 149.142 35.248C149.334 35.056 149.633 34.96 150.038 34.96H164.31C164.715 34.96 165.003 35.056 165.174 35.248C165.366 35.4187 165.462 35.7067 165.462 36.112V39.92C165.462 40.3253 165.366 40.624 165.174 40.816C165.003 40.9867 164.715 41.072 164.31 41.072H156.15V44.4H161.718C162.123 44.4 162.411 44.496 162.582 44.688C162.774 44.8587 162.87 45.1467 162.87 45.552V49.392C162.87 49.7973 162.774 50.096 162.582 50.288C162.411 50.4587 162.123 50.544 161.718 50.544H156.15V56.848C156.15 57.2533 156.054 57.552 155.862 57.744C155.691 57.9147 155.403 58 154.998 58ZM184.667 58H169.819C169.414 58 169.115 57.9147 168.923 57.744C168.752 57.552 168.667 57.2533 168.667 56.848V36.112C168.667 35.7067 168.752 35.4187 168.923 35.248C169.115 35.056 169.414 34.96 169.819 34.96H184.667C185.072 34.96 185.36 35.056 185.531 35.248C185.723 35.4187 185.819 35.7067 185.819 36.112V39.856C185.819 40.2613 185.723 40.56 185.531 40.752C185.36 40.9227 185.072 41.008 184.667 41.008H175.835V43.472H182.075C182.48 43.472 182.768 43.568 182.939 43.76C183.131 43.9307 183.227 44.2187 183.227 44.624V48.048C183.227 48.4533 183.131 48.752 182.939 48.944C182.768 49.1147 182.48 49.2 182.075 49.2H175.835V51.952H184.667C185.072 51.952 185.36 52.048 185.531 52.24C185.723 52.4107 185.819 52.6987 185.819 53.104V56.848C185.819 57.2533 185.723 57.552 185.531 57.744C185.36 57.9147 185.072 58 184.667 58ZM197.957 41.68L196.453 46.544H201.477L199.973 41.68C199.887 41.488 199.791 41.3493 199.685 41.264C199.599 41.1787 199.493 41.136 199.365 41.136H198.565C198.437 41.136 198.319 41.1787 198.213 41.264C198.127 41.3493 198.042 41.488 197.957 41.68ZM196.133 56.848C196.133 57.2533 196.037 57.552 195.845 57.744C195.674 57.9147 195.386 58 194.981 58H190.277C189.871 58 189.573 57.9147 189.381 57.744C189.21 57.552 189.125 57.2533 189.125 56.848V48.4C189.125 47.76 189.221 47.024 189.413 46.192C189.626 45.36 189.946 44.3893 190.373 43.28L193.157 36.016C193.285 35.6533 193.477 35.3867 193.733 35.216C194.01 35.0453 194.362 34.96 194.789 34.96H203.397C203.802 34.96 204.133 35.0453 204.389 35.216C204.666 35.3867 204.869 35.6533 204.997 36.016L207.781 43.28C208.207 44.3893 208.517 45.36 208.709 46.192C208.922 47.024 209.029 47.76 209.029 48.4V56.848C209.029 57.2533 208.933 57.552 208.741 57.744C208.57 57.9147 208.282 58 207.877 58H203.045C202.618 58 202.298 57.9147 202.085 57.744C201.893 57.552 201.797 57.2533 201.797 56.848V52.368H196.133V56.848ZM222.578 58H217.394C216.989 58 216.69 57.9147 216.498 57.744C216.328 57.552 216.242 57.2533 216.242 56.848V41.136H211.538C211.133 41.136 210.834 41.0507 210.642 40.88C210.472 40.688 210.386 40.3893 210.386 39.984V36.112C210.386 35.7067 210.472 35.4187 210.642 35.248C210.834 35.056 211.133 34.96 211.538 34.96H228.434C228.84 34.96 229.128 35.056 229.298 35.248C229.49 35.4187 229.586 35.7067 229.586 36.112V39.984C229.586 40.3893 229.49 40.688 229.298 40.88C229.128 41.0507 228.84 41.136 228.434 41.136H223.73V56.848C223.73 57.2533 223.634 57.552 223.442 57.744C223.272 57.9147 222.984 58 222.578 58ZM252.314 51.952C252.314 52.9333 252.165 53.8293 251.866 54.64C251.589 55.4293 251.077 56.112 250.33 56.688C249.605 57.2427 248.602 57.68 247.322 58C246.042 58.32 244.41 58.48 242.426 58.48C240.442 58.48 238.81 58.32 237.53 58C236.25 57.68 235.237 57.2427 234.49 56.688C233.765 56.112 233.253 55.4293 232.954 54.64C232.677 53.8293 232.538 52.9333 232.538 51.952V36.112C232.538 35.7067 232.624 35.4187 232.794 35.248C232.986 35.056 233.285 34.96 233.69 34.96H238.714C239.12 34.96 239.408 35.056 239.578 35.248C239.77 35.4187 239.866 35.7067 239.866 36.112V50.704C239.866 51.1307 240.026 51.4933 240.346 51.792C240.666 52.0693 241.381 52.208 242.49 52.208C243.621 52.208 244.346 52.0693 244.666 51.792C244.986 51.4933 245.146 51.1307 245.146 50.704V36.112C245.146 35.7067 245.232 35.4187 245.402 35.248C245.594 35.056 245.893 34.96 246.298 34.96H251.162C251.568 34.96 251.856 35.056 252.026 35.248C252.218 35.4187 252.314 35.7067 252.314 36.112V51.952ZM263.805 40.72V44.816H266.205C266.76 44.816 267.133 44.6773 267.325 44.4C267.517 44.1013 267.613 43.7387 267.613 43.312V42.224C267.613 41.7973 267.517 41.4453 267.325 41.168C267.133 40.8693 266.76 40.72 266.205 40.72H263.805ZM262.653 58H257.725C257.32 58 257.021 57.9147 256.829 57.744C256.659 57.552 256.573 57.2533 256.573 56.848V36.112C256.573 35.7067 256.659 35.4187 256.829 35.248C257.021 35.056 257.32 34.96 257.725 34.96H268.381C270.771 34.96 272.413 35.4613 273.309 36.464C274.227 37.4453 274.685 38.7253 274.685 40.304V41.776C274.685 42.672 274.547 43.44 274.269 44.08C274.013 44.6987 273.555 45.1467 272.893 45.424C274.045 45.552 274.973 46.0213 275.677 46.832C276.403 47.6427 276.765 48.72 276.765 50.064V56.848C276.765 57.2533 276.669 57.552 276.477 57.744C276.307 57.9147 276.019 58 275.613 58H270.653C270.248 58 269.949 57.9147 269.757 57.744C269.587 57.552 269.501 57.2533 269.501 56.848V51.952C269.501 51.4827 269.405 51.1413 269.213 50.928C269.043 50.6933 268.733 50.576 268.285 50.576H263.805V56.848C263.805 57.2533 263.709 57.552 263.517 57.744C263.347 57.9147 263.059 58 262.653 58ZM296.355 58H281.507C281.101 58 280.803 57.9147 280.611 57.744C280.44 57.552 280.355 57.2533 280.355 56.848V36.112C280.355 35.7067 280.44 35.4187 280.611 35.248C280.803 35.056 281.101 34.96 281.507 34.96H296.355C296.76 34.96 297.048 35.056 297.219 35.248C297.411 35.4187 297.507 35.7067 297.507 36.112V39.856C297.507 40.2613 297.411 40.56 297.219 40.752C297.048 40.9227 296.76 41.008 296.355 41.008H287.523V43.472H293.763C294.168 43.472 294.456 43.568 294.627 43.76C294.819 43.9307 294.915 44.2187 294.915 44.624V48.048C294.915 48.4533 294.819 48.752 294.627 48.944C294.456 49.1147 294.168 49.2 293.763 49.2H287.523V51.952H296.355C296.76 51.952 297.048 52.048 297.219 52.24C297.411 52.4107 297.507 52.6987 297.507 53.104V56.848C297.507 57.2533 297.411 57.552 297.219 57.744C297.048 57.9147 296.76 58 296.355 58ZM313.228 58H302.444C302.039 58 301.74 57.9147 301.548 57.744C301.377 57.552 301.292 57.2533 301.292 56.848V36.112C301.292 35.7067 301.377 35.4187 301.548 35.248C301.74 35.056 302.039 34.96 302.444 34.96H313.228C315.895 34.96 317.868 35.4933 319.148 36.56C320.449 37.6267 321.1 39.2693 321.1 41.488V51.472C321.1 53.6907 320.449 55.3333 319.148 56.4C317.868 57.4667 315.895 58 313.228 58ZM308.556 41.072V51.952H312.364C312.876 51.952 313.249 51.824 313.484 51.568C313.74 51.312 313.868 50.9173 313.868 50.384V42.608C313.868 42.0747 313.74 41.6907 313.484 41.456C313.249 41.2 312.876 41.072 312.364 41.072H308.556ZM338.467 58H333.507C333.101 58 332.803 57.9147 332.611 57.744C332.44 57.552 332.355 57.2533 332.355 56.848V36.112C332.355 35.7067 332.44 35.4187 332.611 35.248C332.803 35.056 333.101 34.96 333.507 34.96H347.779C348.184 34.96 348.472 35.056 348.643 35.248C348.835 35.4187 348.931 35.7067 348.931 36.112V39.92C348.931 40.3253 348.835 40.624 348.643 40.816C348.472 40.9867 348.184 41.072 347.779 41.072H339.619V44.4H345.187C345.592 44.4 345.88 44.496 346.051 44.688C346.243 44.8587 346.339 45.1467 346.339 45.552V49.392C346.339 49.7973 346.243 50.096 346.051 50.288C345.88 50.4587 345.592 50.544 345.187 50.544H339.619V56.848C339.619 57.2533 339.523 57.552 339.331 57.744C339.16 57.9147 338.872 58 338.467 58ZM369.576 58H353.288C352.883 58 352.584 57.9147 352.392 57.744C352.221 57.552 352.136 57.2533 352.136 56.848V36.112C352.136 35.7067 352.221 35.4187 352.392 35.248C352.584 35.056 352.883 34.96 353.288 34.96H358.248C358.653 34.96 358.941 35.056 359.112 35.248C359.304 35.4187 359.4 35.7067 359.4 36.112V51.952H363.784V46.768C363.784 46.3627 363.869 46.0747 364.04 45.904C364.232 45.712 364.531 45.616 364.936 45.616H369.576C369.981 45.616 370.269 45.712 370.44 45.904C370.632 46.0747 370.728 46.3627 370.728 46.768V56.848C370.728 57.2533 370.632 57.552 370.44 57.744C370.269 57.9147 369.981 58 369.576 58ZM382.738 41.68L381.234 46.544H386.258L384.754 41.68C384.669 41.488 384.573 41.3493 384.466 41.264C384.381 41.1787 384.274 41.136 384.146 41.136H383.346C383.218 41.136 383.101 41.1787 382.994 41.264C382.909 41.3493 382.823 41.488 382.738 41.68ZM380.914 56.848C380.914 57.2533 380.818 57.552 380.626 57.744C380.455 57.9147 380.167 58 379.762 58H375.058C374.653 58 374.354 57.9147 374.162 57.744C373.991 57.552 373.906 57.2533 373.906 56.848V48.4C373.906 47.76 374.002 47.024 374.194 46.192C374.407 45.36 374.727 44.3893 375.154 43.28L377.938 36.016C378.066 35.6533 378.258 35.3867 378.514 35.216C378.791 35.0453 379.143 34.96 379.57 34.96H388.178C388.583 34.96 388.914 35.0453 389.17 35.216C389.447 35.3867 389.65 35.6533 389.778 36.016L392.562 43.28C392.989 44.3893 393.298 45.36 393.49 46.192C393.703 47.024 393.81 47.76 393.81 48.4V56.848C393.81 57.2533 393.714 57.552 393.522 57.744C393.351 57.9147 393.063 58 392.658 58H387.826C387.399 58 387.079 57.9147 386.866 57.744C386.674 57.552 386.578 57.2533 386.578 56.848V52.368H380.914V56.848ZM411.08 58H402.76C402.355 58 402.014 57.9253 401.736 57.776C401.48 57.6267 401.278 57.3493 401.128 56.944L397.992 49.104C397.8 48.6347 397.64 48.2293 397.512 47.888C397.384 47.5253 397.278 47.184 397.192 46.864C397.107 46.544 397.043 46.2133 397 45.872C396.979 45.5093 396.968 45.072 396.968 44.56V36.112C396.968 35.7067 397.054 35.4187 397.224 35.248C397.416 35.056 397.715 34.96 398.12 34.96H403.208C403.614 34.96 403.923 35.056 404.136 35.248C404.35 35.4187 404.456 35.7067 404.456 36.112V44.944C404.456 45.1573 404.478 45.3707 404.52 45.584C404.563 45.7973 404.627 46.0213 404.712 46.256L406.216 50.736C406.28 50.9493 406.355 51.0987 406.44 51.184C406.526 51.248 406.654 51.28 406.824 51.28H407.176C407.347 51.28 407.475 51.248 407.56 51.184C407.646 51.0987 407.72 50.9493 407.784 50.736L409.288 46.224C409.374 45.9893 409.438 45.7653 409.48 45.552C409.523 45.3387 409.544 45.1253 409.544 44.912V36.112C409.544 35.7067 409.63 35.4187 409.8 35.248C409.992 35.056 410.291 34.96 410.696 34.96H415.72C416.126 34.96 416.414 35.056 416.584 35.248C416.776 35.4187 416.872 35.7067 416.872 36.112V44.56C416.872 45.072 416.851 45.5093 416.808 45.872C416.787 46.2133 416.734 46.544 416.648 46.864C416.563 47.184 416.456 47.5253 416.328 47.888C416.2 48.2293 416.04 48.6347 415.848 49.104L412.712 56.944C412.563 57.3493 412.35 57.6267 412.072 57.776C411.816 57.9253 411.486 58 411.08 58ZM440.343 51.952C440.343 52.9333 440.194 53.8293 439.895 54.64C439.618 55.4293 439.106 56.112 438.359 56.688C437.634 57.2427 436.621 57.68 435.319 58C434.039 58.32 432.407 58.48 430.423 58.48C428.439 58.48 426.797 58.32 425.495 58C424.194 57.68 423.17 57.2427 422.423 56.688C421.698 56.112 421.186 55.4293 420.887 54.64C420.61 53.8293 420.471 52.9333 420.471 51.952V41.04C420.471 40.0587 420.61 39.1733 420.887 38.384C421.186 37.5733 421.698 36.88 422.423 36.304C423.17 35.728 424.194 35.28 425.495 34.96C426.797 34.64 428.439 34.48 430.423 34.48C432.407 34.48 434.039 34.64 435.319 34.96C436.621 35.28 437.634 35.728 438.359 36.304C439.106 36.88 439.618 37.5733 439.895 38.384C440.194 39.1733 440.343 40.0587 440.343 41.04V51.952ZM427.735 50.8C427.735 51.2267 427.895 51.5893 428.215 51.888C428.535 52.1653 429.271 52.304 430.423 52.304C431.575 52.304 432.311 52.1653 432.631 51.888C432.951 51.5893 433.111 51.2267 433.111 50.8V42.192C433.111 41.7867 432.951 41.4453 432.631 41.168C432.311 40.8693 431.575 40.72 430.423 40.72C429.271 40.72 428.535 40.8693 428.215 41.168C427.895 41.4453 427.735 41.7867 427.735 42.192V50.8ZM451.649 40.72V44.816H454.049C454.604 44.816 454.977 44.6773 455.169 44.4C455.361 44.1013 455.457 43.7387 455.457 43.312V42.224C455.457 41.7973 455.361 41.4453 455.169 41.168C454.977 40.8693 454.604 40.72 454.049 40.72H451.649ZM450.497 58H445.569C445.164 58 444.865 57.9147 444.673 57.744C444.502 57.552 444.417 57.2533 444.417 56.848V36.112C444.417 35.7067 444.502 35.4187 444.673 35.248C444.865 35.056 445.164 34.96 445.569 34.96H456.225C458.614 34.96 460.257 35.4613 461.153 36.464C462.07 37.4453 462.529 38.7253 462.529 40.304V41.776C462.529 42.672 462.39 43.44 462.113 44.08C461.857 44.6987 461.398 45.1467 460.737 45.424C461.889 45.552 462.817 46.0213 463.521 46.832C464.246 47.6427 464.609 48.72 464.609 50.064V56.848C464.609 57.2533 464.513 57.552 464.321 57.744C464.15 57.9147 463.862 58 463.457 58H458.497C458.092 58 457.793 57.9147 457.601 57.744C457.43 57.552 457.345 57.2533 457.345 56.848V51.952C457.345 51.4827 457.249 51.1413 457.057 50.928C456.886 50.6933 456.577 50.576 456.129 50.576H451.649V56.848C451.649 57.2533 451.553 57.552 451.361 57.744C451.19 57.9147 450.902 58 450.497 58ZM478.886 58H468.774C468.369 58 468.07 57.9147 467.878 57.744C467.708 57.552 467.622 57.2533 467.622 56.848V53.104C467.622 52.6987 467.708 52.4107 467.878 52.24C468.07 52.048 468.369 51.952 468.774 51.952H477.382C477.66 51.952 477.862 51.8667 477.99 51.696C478.14 51.504 478.214 51.28 478.214 51.024C478.214 50.6613 478.14 50.3947 477.99 50.224C477.862 50.0533 477.66 49.9573 477.382 49.936L472.582 49.264C471.089 49.0507 469.884 48.56 468.966 47.792C468.07 47.024 467.622 45.744 467.622 43.952V40.592C467.622 38.7787 468.209 37.392 469.382 36.432C470.556 35.4507 472.177 34.96 474.246 34.96H483.206C483.612 34.96 483.9 35.056 484.07 35.248C484.262 35.4187 484.358 35.7067 484.358 36.112V39.92C484.358 40.3253 484.262 40.624 484.07 40.816C483.9 40.9867 483.612 41.072 483.206 41.072H475.75C475.473 41.072 475.26 41.168 475.11 41.36C474.961 41.5307 474.886 41.7547 474.886 42.032C474.886 42.3093 474.961 42.544 475.11 42.736C475.26 42.928 475.473 43.0347 475.75 43.056L480.518 43.696C482.012 43.9093 483.217 44.4 484.134 45.168C485.052 45.936 485.51 47.216 485.51 49.008V52.368C485.51 54.1813 484.913 55.5787 483.718 56.56C482.545 57.52 480.934 58 478.886 58Z" fill="#F0544F"/>
<rect x="97.6375" y="72" width="439.368" height="1" fill="#B72D23"/>
<rect x="178.84" y="446" width="279.289" height="58.8929" fill="#F4C542" stroke="#F0544F" stroke-width="2"/>
<path d="M218.385 473C218.081 473 217.857 472.936 217.713 472.808C217.585 472.664 217.521 472.44 217.521 472.136V469.28C217.521 468.976 217.585 468.76 217.713 468.632C217.857 468.488 218.081 468.416 218.385 468.416H220.761V460.352H218.385C218.081 460.352 217.857 460.288 217.713 460.16C217.585 460.016 217.521 459.792 217.521 459.488V456.584C217.521 456.28 217.585 456.064 217.713 455.936C217.857 455.792 218.081 455.72 218.385 455.72H228.609C228.913 455.72 229.129 455.792 229.257 455.936C229.401 456.064 229.473 456.28 229.473 456.584V459.488C229.473 459.792 229.401 460.016 229.257 460.16C229.129 460.288 228.913 460.352 228.609 460.352H226.281V468.416H228.609C228.913 468.416 229.129 468.488 229.257 468.632C229.401 468.76 229.473 468.976 229.473 469.28V472.136C229.473 472.44 229.401 472.664 229.257 472.808C229.129 472.936 228.913 473 228.609 473H218.385ZM236.901 473H233.301C232.997 473 232.773 472.936 232.629 472.808C232.501 472.664 232.437 472.44 232.437 472.136V456.584C232.437 456.28 232.501 456.064 232.629 455.936C232.773 455.792 232.997 455.72 233.301 455.72H235.797C236.101 455.72 236.357 455.768 236.565 455.864C236.789 455.96 237.005 456.128 237.213 456.368L241.869 461.696V456.584C241.869 456.28 241.933 456.064 242.061 455.936C242.205 455.792 242.429 455.72 242.733 455.72H246.333C246.637 455.72 246.853 455.792 246.981 455.936C247.125 456.064 247.197 456.28 247.197 456.584V472.136C247.197 472.44 247.125 472.664 246.981 472.808C246.853 472.936 246.637 473 246.333 473H242.733C242.429 473 242.205 472.936 242.061 472.808C241.933 472.664 241.869 472.44 241.869 472.136V469.184L237.765 464.216V472.136C237.765 472.44 237.693 472.664 237.549 472.808C237.421 472.936 237.205 473 236.901 473ZM263.707 473H256.147C254.147 473 252.659 472.6 251.683 471.8C250.723 471 250.243 469.768 250.243 468.104V460.616C250.243 458.952 250.723 457.72 251.683 456.92C252.659 456.12 254.147 455.72 256.147 455.72H262.147C262.451 455.72 262.667 455.792 262.795 455.936C262.939 456.064 263.011 456.28 263.011 456.584V459.488C263.011 459.792 262.939 460.016 262.795 460.16C262.667 460.288 262.451 460.352 262.147 460.352H257.155C256.659 460.352 256.291 460.456 256.051 460.664C255.811 460.856 255.691 461.152 255.691 461.552V467.288C255.691 467.688 255.779 467.984 255.955 468.176C256.147 468.368 256.427 468.464 256.795 468.464H259.123V464.72C259.123 464.416 259.187 464.2 259.315 464.072C259.459 463.928 259.683 463.856 259.987 463.856H263.707C264.011 463.856 264.227 463.928 264.355 464.072C264.499 464.2 264.571 464.416 264.571 464.72V472.136C264.571 472.44 264.499 472.664 264.355 472.808C264.227 472.936 264.011 473 263.707 473ZM272.923 460.04V463.112H274.723C275.139 463.112 275.419 463.008 275.563 462.8C275.707 462.576 275.779 462.304 275.779 461.984V461.168C275.779 460.848 275.707 460.584 275.563 460.376C275.419 460.152 275.139 460.04 274.723 460.04H272.923ZM272.059 473H268.363C268.059 473 267.835 472.936 267.691 472.808C267.563 472.664 267.499 472.44 267.499 472.136V456.584C267.499 456.28 267.563 456.064 267.691 455.936C267.835 455.792 268.059 455.72 268.363 455.72H276.355C278.147 455.72 279.379 456.096 280.051 456.848C280.739 457.584 281.083 458.544 281.083 459.728V460.832C281.083 461.504 280.979 462.08 280.771 462.56C280.579 463.024 280.235 463.36 279.739 463.568C280.603 463.664 281.299 464.016 281.827 464.624C282.371 465.232 282.643 466.04 282.643 467.048V472.136C282.643 472.44 282.571 472.664 282.427 472.808C282.299 472.936 282.083 473 281.779 473H278.059C277.755 473 277.531 472.936 277.387 472.808C277.259 472.664 277.195 472.44 277.195 472.136V468.464C277.195 468.112 277.123 467.856 276.979 467.696C276.851 467.52 276.619 467.432 276.283 467.432H272.923V472.136C272.923 472.44 272.851 472.664 272.707 472.808C272.579 472.936 272.363 473 272.059 473ZM297.335 473H286.199C285.895 473 285.671 472.936 285.527 472.808C285.399 472.664 285.335 472.44 285.335 472.136V456.584C285.335 456.28 285.399 456.064 285.527 455.936C285.671 455.792 285.895 455.72 286.199 455.72H297.335C297.639 455.72 297.855 455.792 297.983 455.936C298.127 456.064 298.199 456.28 298.199 456.584V459.392C298.199 459.696 298.127 459.92 297.983 460.064C297.855 460.192 297.639 460.256 297.335 460.256H290.711V462.104H295.391C295.695 462.104 295.911 462.176 296.039 462.32C296.183 462.448 296.255 462.664 296.255 462.968V465.536C296.255 465.84 296.183 466.064 296.039 466.208C295.911 466.336 295.695 466.4 295.391 466.4H290.711V468.464H297.335C297.639 468.464 297.855 468.536 297.983 468.68C298.127 468.808 298.199 469.024 298.199 469.328V472.136C298.199 472.44 298.127 472.664 297.983 472.808C297.855 472.936 297.639 473 297.335 473ZM309.99 473H301.902C301.598 473 301.374 472.936 301.23 472.808C301.102 472.664 301.038 472.44 301.038 472.136V456.584C301.038 456.28 301.102 456.064 301.23 455.936C301.374 455.792 301.598 455.72 301.902 455.72H309.99C311.99 455.72 313.47 456.12 314.43 456.92C315.406 457.72 315.894 458.952 315.894 460.616V468.104C315.894 469.768 315.406 471 314.43 471.8C313.47 472.6 311.99 473 309.99 473ZM306.486 460.304V468.464H309.342C309.726 468.464 310.006 468.368 310.182 468.176C310.374 467.984 310.47 467.688 310.47 467.288V461.456C310.47 461.056 310.374 460.768 310.182 460.592C310.006 460.4 309.726 460.304 309.342 460.304H306.486ZM319.425 473C319.121 473 318.897 472.936 318.753 472.808C318.625 472.664 318.561 472.44 318.561 472.136V469.28C318.561 468.976 318.625 468.76 318.753 468.632C318.897 468.488 319.121 468.416 319.425 468.416H321.801V460.352H319.425C319.121 460.352 318.897 460.288 318.753 460.16C318.625 460.016 318.561 459.792 318.561 459.488V456.584C318.561 456.28 318.625 456.064 318.753 455.936C318.897 455.792 319.121 455.72 319.425 455.72H329.649C329.953 455.72 330.169 455.792 330.297 455.936C330.441 456.064 330.513 456.28 330.513 456.584V459.488C330.513 459.792 330.441 460.016 330.297 460.16C330.169 460.288 329.953 460.352 329.649 460.352H327.321V468.416H329.649C329.953 468.416 330.169 468.488 330.297 468.632C330.441 468.76 330.513 468.976 330.513 469.28V472.136C330.513 472.44 330.441 472.664 330.297 472.808C330.169 472.936 329.953 473 329.649 473H319.425ZM345.476 473H334.34C334.036 473 333.812 472.936 333.668 472.808C333.54 472.664 333.476 472.44 333.476 472.136V456.584C333.476 456.28 333.54 456.064 333.668 455.936C333.812 455.792 334.036 455.72 334.34 455.72H345.476C345.78 455.72 345.996 455.792 346.124 455.936C346.268 456.064 346.34 456.28 346.34 456.584V459.392C346.34 459.696 346.268 459.92 346.124 460.064C345.996 460.192 345.78 460.256 345.476 460.256H338.852V462.104H343.532C343.836 462.104 344.052 462.176 344.18 462.32C344.324 462.448 344.396 462.664 344.396 462.968V465.536C344.396 465.84 344.324 466.064 344.18 466.208C344.052 466.336 343.836 466.4 343.532 466.4H338.852V468.464H345.476C345.78 468.464 345.996 468.536 346.124 468.68C346.268 468.808 346.34 469.024 346.34 469.328V472.136C346.34 472.44 346.268 472.664 346.124 472.808C345.996 472.936 345.78 473 345.476 473ZM353.643 473H350.043C349.739 473 349.515 472.936 349.371 472.808C349.243 472.664 349.179 472.44 349.179 472.136V456.584C349.179 456.28 349.243 456.064 349.371 455.936C349.515 455.792 349.739 455.72 350.043 455.72H352.539C352.843 455.72 353.099 455.768 353.307 455.864C353.531 455.96 353.747 456.128 353.955 456.368L358.611 461.696V456.584C358.611 456.28 358.675 456.064 358.803 455.936C358.947 455.792 359.171 455.72 359.475 455.72H363.075C363.379 455.72 363.595 455.792 363.723 455.936C363.867 456.064 363.939 456.28 363.939 456.584V472.136C363.939 472.44 363.867 472.664 363.723 472.808C363.595 472.936 363.379 473 363.075 473H359.475C359.171 473 358.947 472.936 358.803 472.808C358.675 472.664 358.611 472.44 358.611 472.136V469.184L354.507 464.216V472.136C354.507 472.44 354.435 472.664 354.291 472.808C354.163 472.936 353.947 473 353.643 473ZM375.409 473H371.521C371.217 473 370.993 472.936 370.849 472.808C370.721 472.664 370.657 472.44 370.657 472.136V460.352H367.129C366.825 460.352 366.601 460.288 366.457 460.16C366.329 460.016 366.265 459.792 366.265 459.488V456.584C366.265 456.28 366.329 456.064 366.457 455.936C366.601 455.792 366.825 455.72 367.129 455.72H379.801C380.105 455.72 380.321 455.792 380.449 455.936C380.593 456.064 380.665 456.28 380.665 456.584V459.488C380.665 459.792 380.593 460.016 380.449 460.16C380.321 460.288 380.105 460.352 379.801 460.352H376.273V472.136C376.273 472.44 376.201 472.664 376.057 472.808C375.929 472.936 375.713 473 375.409 473ZM391.015 473H383.431C383.127 473 382.903 472.936 382.759 472.808C382.631 472.664 382.567 472.44 382.567 472.136V469.328C382.567 469.024 382.631 468.808 382.759 468.68C382.903 468.536 383.127 468.464 383.431 468.464H389.887C390.095 468.464 390.247 468.4 390.343 468.272C390.455 468.128 390.511 467.96 390.511 467.768C390.511 467.496 390.455 467.296 390.343 467.168C390.247 467.04 390.095 466.968 389.887 466.952L386.287 466.448C385.167 466.288 384.263 465.92 383.575 465.344C382.903 464.768 382.567 463.808 382.567 462.464V459.944C382.567 458.584 383.007 457.544 383.887 456.824C384.767 456.088 385.983 455.72 387.535 455.72H394.255C394.559 455.72 394.775 455.792 394.903 455.936C395.047 456.064 395.119 456.28 395.119 456.584V459.44C395.119 459.744 395.047 459.968 394.903 460.112C394.775 460.24 394.559 460.304 394.255 460.304H388.663C388.455 460.304 388.295 460.376 388.183 460.52C388.071 460.648 388.015 460.816 388.015 461.024C388.015 461.232 388.071 461.408 388.183 461.552C388.295 461.696 388.455 461.776 388.663 461.792L392.239 462.272C393.359 462.432 394.263 462.8 394.951 463.376C395.639 463.952 395.983 464.912 395.983 466.256V468.776C395.983 470.136 395.535 471.184 394.639 471.92C393.759 472.64 392.551 473 391.015 473ZM409.447 468.512H412.855C413.207 468.512 413.447 468.432 413.575 468.272C413.703 468.112 413.767 467.872 413.767 467.552V464.24C413.767 463.936 413.831 463.72 413.959 463.592C414.103 463.448 414.327 463.376 414.631 463.376H419.287C419.591 463.376 419.807 463.448 419.935 463.592C420.079 463.72 420.151 463.936 420.151 464.24V466.832C420.151 467.136 420.079 467.36 419.935 467.504C419.807 467.632 419.591 467.696 419.287 467.696H418.735V468.776C418.735 470.056 418.367 471.08 417.631 471.848C416.895 472.616 415.831 473 414.439 473H407.767C406.295 473 405.167 472.616 404.383 471.848C403.615 471.08 403.231 470.056 403.231 468.776V466.856C403.231 465.736 403.519 464.856 404.095 464.216C404.671 463.576 405.391 463.216 406.255 463.136C405.727 462.912 405.359 462.576 405.151 462.128C404.943 461.68 404.839 461.152 404.839 460.544V459.392C404.839 458.336 405.199 457.464 405.919 456.776C406.655 456.072 407.831 455.72 409.447 455.72H414.511C414.815 455.72 415.031 455.792 415.159 455.936C415.303 456.064 415.375 456.28 415.375 456.584V459.344C415.375 459.648 415.303 459.872 415.159 460.016C415.031 460.144 414.815 460.208 414.511 460.208H411.007C410.623 460.208 410.375 460.28 410.263 460.424C410.151 460.568 410.095 460.736 410.095 460.928V461.432C410.095 461.624 410.151 461.792 410.263 461.936C410.375 462.08 410.623 462.152 411.007 462.152H411.367C411.671 462.152 411.887 462.224 412.015 462.368C412.159 462.496 412.231 462.712 412.231 463.016V465.488C412.231 465.792 412.159 466.016 412.015 466.16C411.887 466.288 411.671 466.352 411.367 466.352H409.447C409.063 466.352 408.815 466.424 408.703 466.568C408.591 466.696 408.535 466.856 408.535 467.048V467.792C408.535 467.984 408.591 468.152 408.703 468.296C408.815 468.44 409.063 468.512 409.447 468.512ZM249.534 496H245.934C245.63 496 245.406 495.936 245.262 495.808C245.134 495.664 245.07 495.44 245.07 495.136V479.584C245.07 479.28 245.134 479.064 245.262 478.936C245.406 478.792 245.63 478.72 245.934 478.72H248.43C248.734 478.72 248.99 478.768 249.198 478.864C249.422 478.96 249.638 479.128 249.846 479.368L254.502 484.696V479.584C254.502 479.28 254.566 479.064 254.694 478.936C254.838 478.792 255.062 478.72 255.366 478.72H258.966C259.27 478.72 259.486 478.792 259.614 478.936C259.758 479.064 259.83 479.28 259.83 479.584V495.136C259.83 495.44 259.758 495.664 259.614 495.808C259.486 495.936 259.27 496 258.966 496H255.366C255.062 496 254.838 495.936 254.694 495.808C254.566 495.664 254.502 495.44 254.502 495.136V492.184L250.398 487.216V495.136C250.398 495.44 250.326 495.664 250.182 495.808C250.054 495.936 249.838 496 249.534 496ZM277.852 491.464C277.852 492.2 277.74 492.872 277.516 493.48C277.308 494.072 276.924 494.584 276.364 495.016C275.82 495.432 275.068 495.76 274.108 496C273.148 496.24 271.924 496.36 270.436 496.36C268.948 496.36 267.724 496.24 266.764 496C265.804 495.76 265.044 495.432 264.484 495.016C263.94 494.584 263.556 494.072 263.332 493.48C263.124 492.872 263.02 492.2 263.02 491.464V479.584C263.02 479.28 263.084 479.064 263.212 478.936C263.356 478.792 263.58 478.72 263.884 478.72H267.652C267.956 478.72 268.172 478.792 268.3 478.936C268.444 479.064 268.516 479.28 268.516 479.584V490.528C268.516 490.848 268.636 491.12 268.876 491.344C269.116 491.552 269.652 491.656 270.484 491.656C271.332 491.656 271.876 491.552 272.116 491.344C272.356 491.12 272.476 490.848 272.476 490.528V479.584C272.476 479.28 272.54 479.064 272.668 478.936C272.812 478.792 273.036 478.72 273.34 478.72H276.988C277.292 478.72 277.508 478.792 277.636 478.936C277.78 479.064 277.852 479.28 277.852 479.584V491.464ZM289.206 496H285.318C285.014 496 284.79 495.936 284.646 495.808C284.518 495.664 284.454 495.44 284.454 495.136V483.352H280.926C280.622 483.352 280.398 483.288 280.254 483.16C280.126 483.016 280.062 482.792 280.062 482.488V479.584C280.062 479.28 280.126 479.064 280.254 478.936C280.398 478.792 280.622 478.72 280.926 478.72H293.598C293.902 478.72 294.118 478.792 294.246 478.936C294.39 479.064 294.462 479.28 294.462 479.584V482.488C294.462 482.792 294.39 483.016 294.246 483.16C294.118 483.288 293.902 483.352 293.598 483.352H290.07V495.136C290.07 495.44 289.998 495.664 289.854 495.808C289.726 495.936 289.51 496 289.206 496ZM302.22 483.04V486.112H304.02C304.436 486.112 304.716 486.008 304.86 485.8C305.004 485.576 305.076 485.304 305.076 484.984V484.168C305.076 483.848 305.004 483.584 304.86 483.376C304.716 483.152 304.436 483.04 304.02 483.04H302.22ZM301.356 496H297.66C297.356 496 297.132 495.936 296.988 495.808C296.86 495.664 296.796 495.44 296.796 495.136V479.584C296.796 479.28 296.86 479.064 296.988 478.936C297.132 478.792 297.356 478.72 297.66 478.72H305.652C307.444 478.72 308.676 479.096 309.348 479.848C310.036 480.584 310.38 481.544 310.38 482.728V483.832C310.38 484.504 310.276 485.08 310.068 485.56C309.876 486.024 309.532 486.36 309.036 486.568C309.9 486.664 310.596 487.016 311.124 487.624C311.668 488.232 311.94 489.04 311.94 490.048V495.136C311.94 495.44 311.868 495.664 311.724 495.808C311.596 495.936 311.38 496 311.076 496H307.356C307.052 496 306.828 495.936 306.684 495.808C306.556 495.664 306.492 495.44 306.492 495.136V491.464C306.492 491.112 306.42 490.856 306.276 490.696C306.148 490.52 305.916 490.432 305.58 490.432H302.22V495.136C302.22 495.44 302.148 495.664 302.004 495.808C301.876 495.936 301.66 496 301.356 496ZM315.112 496C314.808 496 314.584 495.936 314.44 495.808C314.312 495.664 314.248 495.44 314.248 495.136V492.28C314.248 491.976 314.312 491.76 314.44 491.632C314.584 491.488 314.808 491.416 315.112 491.416H317.488V483.352H315.112C314.808 483.352 314.584 483.288 314.44 483.16C314.312 483.016 314.248 482.792 314.248 482.488V479.584C314.248 479.28 314.312 479.064 314.44 478.936C314.584 478.792 314.808 478.72 315.112 478.72H325.336C325.64 478.72 325.856 478.792 325.984 478.936C326.128 479.064 326.2 479.28 326.2 479.584V482.488C326.2 482.792 326.128 483.016 325.984 483.16C325.856 483.288 325.64 483.352 325.336 483.352H323.008V491.416H325.336C325.64 491.416 325.856 491.488 325.984 491.632C326.128 491.76 326.2 491.976 326.2 492.28V495.136C326.2 495.44 326.128 495.664 325.984 495.808C325.856 495.936 325.64 496 325.336 496H315.112ZM337.323 496H333.435C333.131 496 332.907 495.936 332.763 495.808C332.635 495.664 332.571 495.44 332.571 495.136V483.352H329.043C328.739 483.352 328.515 483.288 328.371 483.16C328.243 483.016 328.179 482.792 328.179 482.488V479.584C328.179 479.28 328.243 479.064 328.371 478.936C328.515 478.792 328.739 478.72 329.043 478.72H341.715C342.019 478.72 342.235 478.792 342.363 478.936C342.507 479.064 342.579 479.28 342.579 479.584V482.488C342.579 482.792 342.507 483.016 342.363 483.16C342.235 483.288 342.019 483.352 341.715 483.352H338.187V495.136C338.187 495.44 338.115 495.664 337.971 495.808C337.843 495.936 337.627 496 337.323 496ZM345.393 496C345.089 496 344.865 495.936 344.721 495.808C344.593 495.664 344.529 495.44 344.529 495.136V492.28C344.529 491.976 344.593 491.76 344.721 491.632C344.865 491.488 345.089 491.416 345.393 491.416H347.769V483.352H345.393C345.089 483.352 344.865 483.288 344.721 483.16C344.593 483.016 344.529 482.792 344.529 482.488V479.584C344.529 479.28 344.593 479.064 344.721 478.936C344.865 478.792 345.089 478.72 345.393 478.72H355.617C355.921 478.72 356.137 478.792 356.265 478.936C356.409 479.064 356.481 479.28 356.481 479.584V482.488C356.481 482.792 356.409 483.016 356.265 483.16C356.137 483.288 355.921 483.352 355.617 483.352H353.289V491.416H355.617C355.921 491.416 356.137 491.488 356.265 491.632C356.409 491.76 356.481 491.976 356.481 492.28V495.136C356.481 495.44 356.409 495.664 356.265 495.808C356.137 495.936 355.921 496 355.617 496H345.393ZM374.085 491.464C374.085 492.2 373.973 492.872 373.749 493.48C373.541 494.072 373.157 494.584 372.597 495.016C372.053 495.432 371.293 495.76 370.317 496C369.357 496.24 368.133 496.36 366.645 496.36C365.157 496.36 363.925 496.24 362.949 496C361.973 495.76 361.205 495.432 360.645 495.016C360.101 494.584 359.717 494.072 359.493 493.48C359.285 492.872 359.181 492.2 359.181 491.464V483.28C359.181 482.544 359.285 481.88 359.493 481.288C359.717 480.68 360.101 480.16 360.645 479.728C361.205 479.296 361.973 478.96 362.949 478.72C363.925 478.48 365.157 478.36 366.645 478.36C368.133 478.36 369.357 478.48 370.317 478.72C371.293 478.96 372.053 479.296 372.597 479.728C373.157 480.16 373.541 480.68 373.749 481.288C373.973 481.88 374.085 482.544 374.085 483.28V491.464ZM364.629 490.6C364.629 490.92 364.749 491.192 364.989 491.416C365.229 491.624 365.781 491.728 366.645 491.728C367.509 491.728 368.061 491.624 368.301 491.416C368.541 491.192 368.661 490.92 368.661 490.6V484.144C368.661 483.84 368.541 483.584 368.301 483.376C368.061 483.152 367.509 483.04 366.645 483.04C365.781 483.04 365.229 483.152 364.989 483.376C364.749 483.584 364.629 483.84 364.629 484.144V490.6ZM381.604 496H378.004C377.7 496 377.476 495.936 377.332 495.808C377.204 495.664 377.14 495.44 377.14 495.136V479.584C377.14 479.28 377.204 479.064 377.332 478.936C377.476 478.792 377.7 478.72 378.004 478.72H380.5C380.804 478.72 381.06 478.768 381.268 478.864C381.492 478.96 381.708 479.128 381.916 479.368L386.572 484.696V479.584C386.572 479.28 386.636 479.064 386.764 478.936C386.908 478.792 387.132 478.72 387.436 478.72H391.036C391.34 478.72 391.556 478.792 391.684 478.936C391.828 479.064 391.9 479.28 391.9 479.584V495.136C391.9 495.44 391.828 495.664 391.684 495.808C391.556 495.936 391.34 496 391.036 496H387.436C387.132 496 386.908 495.936 386.764 495.808C386.636 495.664 386.572 495.44 386.572 495.136V492.184L382.468 487.216V495.136C382.468 495.44 382.396 495.664 382.252 495.808C382.124 495.936 381.908 496 381.604 496Z" fill="#F0544F"/>
<rect x="177.84" y="505.893" width="281.289" height="1.10714" fill="#C2352B"/>
<rect x="216.035" y="235" width="199.087" height="42" fill="#F4C542" stroke="#F0544F" stroke-width="2"/>
<path d="M263.205 267H253.093C252.688 267 252.389 266.915 252.197 266.744C252.027 266.552 251.941 266.253 251.941 265.848V262.104C251.941 261.699 252.027 261.411 252.197 261.24C252.389 261.048 252.688 260.952 253.093 260.952H261.701C261.979 260.952 262.181 260.867 262.309 260.696C262.459 260.504 262.533 260.28 262.533 260.024C262.533 259.661 262.459 259.395 262.309 259.224C262.181 259.053 261.979 258.957 261.701 258.936L256.901 258.264C255.408 258.051 254.203 257.56 253.285 256.792C252.389 256.024 251.941 254.744 251.941 252.952V249.592C251.941 247.779 252.528 246.392 253.701 245.432C254.875 244.451 256.496 243.96 258.565 243.96H267.525C267.931 243.96 268.219 244.056 268.389 244.248C268.581 244.419 268.677 244.707 268.677 245.112V248.92C268.677 249.325 268.581 249.624 268.389 249.816C268.219 249.987 267.931 250.072 267.525 250.072H260.069C259.792 250.072 259.579 250.168 259.429 250.36C259.28 250.531 259.205 250.755 259.205 251.032C259.205 251.309 259.28 251.544 259.429 251.736C259.579 251.928 259.792 252.035 260.069 252.056L264.837 252.696C266.331 252.909 267.536 253.4 268.453 254.168C269.371 254.936 269.829 256.216 269.829 258.008V261.368C269.829 263.181 269.232 264.579 268.037 265.56C266.864 266.52 265.253 267 263.205 267ZM279.442 267H274.482C274.077 267 273.778 266.915 273.586 266.744C273.415 266.552 273.33 266.253 273.33 265.848V245.112C273.33 244.707 273.415 244.419 273.586 244.248C273.778 244.056 274.077 243.96 274.482 243.96H279.442C279.847 243.96 280.135 244.056 280.306 244.248C280.498 244.419 280.594 244.707 280.594 245.112V252.472H281.874L285.17 245.016C285.319 244.632 285.522 244.365 285.778 244.216C286.034 244.045 286.365 243.96 286.77 243.96H291.698C292.061 243.96 292.306 244.056 292.434 244.248C292.562 244.419 292.551 244.675 292.402 245.016L289.138 252.472C290.333 252.536 291.282 252.963 291.986 253.752C292.711 254.52 293.074 255.544 293.074 256.824V265.848C293.074 266.253 292.978 266.552 292.786 266.744C292.615 266.915 292.327 267 291.922 267H286.994C286.589 267 286.29 266.915 286.098 266.744C285.927 266.552 285.842 266.253 285.842 265.848V259.608C285.842 259.267 285.757 259 285.586 258.808C285.415 258.616 285.159 258.52 284.818 258.52H280.594V265.848C280.594 266.253 280.498 266.552 280.306 266.744C280.135 266.915 279.847 267 279.442 267ZM297.845 267C297.44 267 297.141 266.915 296.949 266.744C296.778 266.552 296.693 266.253 296.693 265.848V262.04C296.693 261.635 296.778 261.347 296.949 261.176C297.141 260.984 297.44 260.888 297.845 260.888H301.013V250.136H297.845C297.44 250.136 297.141 250.051 296.949 249.88C296.778 249.688 296.693 249.389 296.693 248.984V245.112C296.693 244.707 296.778 244.419 296.949 244.248C297.141 244.056 297.44 243.96 297.845 243.96H311.477C311.882 243.96 312.17 244.056 312.341 244.248C312.533 244.419 312.629 244.707 312.629 245.112V248.984C312.629 249.389 312.533 249.688 312.341 249.88C312.17 250.051 311.882 250.136 311.477 250.136H308.373V260.888H311.477C311.882 260.888 312.17 260.984 312.341 261.176C312.533 261.347 312.629 261.635 312.629 262.04V265.848C312.629 266.253 312.533 266.552 312.341 266.744C312.17 266.915 311.882 267 311.477 267H297.845ZM334.02 267H317.732C317.327 267 317.028 266.915 316.836 266.744C316.665 266.552 316.58 266.253 316.58 265.848V245.112C316.58 244.707 316.665 244.419 316.836 244.248C317.028 244.056 317.327 243.96 317.732 243.96H322.692C323.097 243.96 323.385 244.056 323.556 244.248C323.748 244.419 323.844 244.707 323.844 245.112V260.952H328.228V255.768C328.228 255.363 328.313 255.075 328.484 254.904C328.676 254.712 328.975 254.616 329.38 254.616H334.02C334.425 254.616 334.713 254.712 334.884 254.904C335.076 255.075 335.172 255.363 335.172 255.768V265.848C335.172 266.253 335.076 266.552 334.884 266.744C334.713 266.915 334.425 267 334.02 267ZM356.27 267H339.982C339.577 267 339.278 266.915 339.086 266.744C338.915 266.552 338.83 266.253 338.83 265.848V245.112C338.83 244.707 338.915 244.419 339.086 244.248C339.278 244.056 339.577 243.96 339.982 243.96H344.942C345.347 243.96 345.635 244.056 345.806 244.248C345.998 244.419 346.094 244.707 346.094 245.112V260.952H350.478V255.768C350.478 255.363 350.563 255.075 350.734 254.904C350.926 254.712 351.225 254.616 351.63 254.616H356.27C356.675 254.616 356.963 254.712 357.134 254.904C357.326 255.075 357.422 255.363 357.422 255.768V265.848C357.422 266.253 357.326 266.552 357.134 266.744C356.963 266.915 356.675 267 356.27 267ZM371.768 267H361.656C361.251 267 360.952 266.915 360.76 266.744C360.589 266.552 360.504 266.253 360.504 265.848V262.104C360.504 261.699 360.589 261.411 360.76 261.24C360.952 261.048 361.251 260.952 361.656 260.952H370.264C370.541 260.952 370.744 260.867 370.872 260.696C371.021 260.504 371.096 260.28 371.096 260.024C371.096 259.661 371.021 259.395 370.872 259.224C370.744 259.053 370.541 258.957 370.264 258.936L365.464 258.264C363.971 258.051 362.765 257.56 361.848 256.792C360.952 256.024 360.504 254.744 360.504 252.952V249.592C360.504 247.779 361.091 246.392 362.264 245.432C363.437 244.451 365.059 243.96 367.128 243.96H376.088C376.493 243.96 376.781 244.056 376.952 244.248C377.144 244.419 377.24 244.707 377.24 245.112V248.92C377.24 249.325 377.144 249.624 376.952 249.816C376.781 249.987 376.493 250.072 376.088 250.072H368.632C368.355 250.072 368.141 250.168 367.992 250.36C367.843 250.531 367.768 250.755 367.768 251.032C367.768 251.309 367.843 251.544 367.992 251.736C368.141 251.928 368.355 252.035 368.632 252.056L373.4 252.696C374.893 252.909 376.099 253.4 377.016 254.168C377.933 254.936 378.392 256.216 378.392 258.008V261.368C378.392 263.181 377.795 264.579 376.6 265.56C375.427 266.52 373.816 267 371.768 267Z" fill="#F0544F"/>
<rect x="215.035" y="278" width="201.087" height="1" fill="#C2352B"/>
</svg>
