<svg width="625" height="609" viewBox="0 0 625 609" fill="none" xmlns="http://www.w3.org/2000/svg">
<g id="Storefront" clip-path="url(#clip0_16_21)" filter="url(#filter0_n_16_21)">
<g id="StoreCard">
<g id="Rectangle 1" filter="url(#filter1_d_16_21)">
<rect width="625" height="609" rx="4" fill="#FFF5E0"/>
</g>
<g id="StoreInside" filter="url(#filter2_f_16_21)">
<rect x="175" y="223" width="275" height="298" fill="white"/>
</g>
<path id="Rectangle 9" d="M0 521H625V605C625 607.209 623.209 609 621 609H3.99999C1.79085 609 0 607.209 0 605V521Z" fill="#C5BDB5"/>
<rect id="Rectangle 6" x="16" y="202" width="582" height="21" fill="#D9D9D9"/>
<rect id="Rectangle 7" x="300" y="206" width="26" height="12" fill="#313131"/>
<rect id="Rectangle 8" x="35" y="9" width="563" height="155" fill="#F0544F" stroke="#F4C542" stroke-width="2"/>
<path id="Ethan Tran" d="M94.0044 97H56.8844C55.871 97 55.1244 96.7867 54.6444 96.36C54.2177 95.88 54.0044 95.1333 54.0044 94.12V42.28C54.0044 41.2667 54.2177 40.5467 54.6444 40.12C55.1244 39.64 55.871 39.4 56.8844 39.4H94.0044C95.0177 39.4 95.7377 39.64 96.1644 40.12C96.6444 40.5467 96.8844 41.2667 96.8844 42.28V51.64C96.8844 52.6533 96.6444 53.4 96.1644 53.88C95.7377 54.3067 95.0177 54.52 94.0044 54.52H71.9244V60.68H87.5244C88.5377 60.68 89.2577 60.92 89.6844 61.4C90.1644 61.8267 90.4044 62.5467 90.4044 63.56V72.12C90.4044 73.1333 90.1644 73.88 89.6844 74.36C89.2577 74.7867 88.5377 75 87.5244 75H71.9244V81.88H94.0044C95.0177 81.88 95.7377 82.12 96.1644 82.6C96.6444 83.0267 96.8844 83.7467 96.8844 84.76V94.12C96.8844 95.1333 96.6444 95.88 96.1644 96.36C95.7377 96.7867 95.0177 97 94.0044 97ZM133.548 97H120.588C119.575 97 118.828 96.7867 118.348 96.36C117.921 95.88 117.708 95.1333 117.708 94.12V54.84H105.948C104.935 54.84 104.188 54.6267 103.708 54.2C103.281 53.72 103.068 52.9733 103.068 51.96V42.28C103.068 41.2667 103.281 40.5467 103.708 40.12C104.188 39.64 104.935 39.4 105.948 39.4H148.188C149.201 39.4 149.921 39.64 150.348 40.12C150.828 40.5467 151.068 41.2667 151.068 42.28V51.96C151.068 52.9733 150.828 53.72 150.348 54.2C149.921 54.6267 149.201 54.84 148.188 54.84H136.428V94.12C136.428 95.1333 136.188 95.88 135.708 96.36C135.281 96.7867 134.561 97 133.548 97ZM174.128 97H161.728C160.715 97 159.968 96.7867 159.488 96.36C159.061 95.88 158.848 95.1333 158.848 94.12V42.28C158.848 41.2667 159.061 40.5467 159.488 40.12C159.968 39.64 160.715 39.4 161.728 39.4H174.128C175.141 39.4 175.861 39.64 176.288 40.12C176.768 40.5467 177.008 41.2667 177.008 42.28V59.64H190.368V42.28C190.368 41.2667 190.581 40.5467 191.008 40.12C191.488 39.64 192.235 39.4 193.248 39.4H205.648C206.661 39.4 207.381 39.64 207.808 40.12C208.288 40.5467 208.528 41.2667 208.528 42.28V94.12C208.528 95.1333 208.288 95.88 207.808 96.36C207.381 96.7867 206.661 97 205.648 97H193.248C192.235 97 191.488 96.7867 191.008 96.36C190.581 95.88 190.368 95.1333 190.368 94.12V76.36H177.008V94.12C177.008 95.1333 176.768 95.88 176.288 96.36C175.861 96.7867 175.141 97 174.128 97ZM240.431 56.2L236.671 68.36H249.231L245.471 56.2C245.258 55.72 245.018 55.3733 244.751 55.16C244.538 54.9467 244.271 54.84 243.951 54.84H241.951C241.631 54.84 241.338 54.9467 241.071 55.16C240.858 55.3733 240.645 55.72 240.431 56.2ZM235.871 94.12C235.871 95.1333 235.631 95.88 235.151 96.36C234.725 96.7867 234.005 97 232.991 97H221.231C220.218 97 219.471 96.7867 218.991 96.36C218.565 95.88 218.351 95.1333 218.351 94.12V73C218.351 71.4 218.591 69.56 219.071 67.48C219.605 65.4 220.405 62.9733 221.471 60.2L228.431 42.04C228.751 41.1333 229.231 40.4667 229.871 40.04C230.565 39.6133 231.445 39.4 232.511 39.4H254.031C255.045 39.4 255.871 39.6133 256.511 40.04C257.205 40.4667 257.711 41.1333 258.031 42.04L264.991 60.2C266.058 62.9733 266.831 65.4 267.311 67.48C267.845 69.56 268.111 71.4 268.111 73V94.12C268.111 95.1333 267.871 95.88 267.391 96.36C266.965 96.7867 266.245 97 265.231 97H253.151C252.085 97 251.285 96.7867 250.751 96.36C250.271 95.88 250.031 95.1333 250.031 94.12V82.92H235.871V94.12ZM292.869 97H280.869C279.855 97 279.109 96.7867 278.629 96.36C278.202 95.88 277.989 95.1333 277.989 94.12V42.28C277.989 41.2667 278.202 40.5467 278.629 40.12C279.109 39.64 279.855 39.4 280.869 39.4H289.189C290.202 39.4 291.055 39.56 291.749 39.88C292.495 40.2 293.215 40.76 293.909 41.56L309.429 59.32V42.28C309.429 41.2667 309.642 40.5467 310.069 40.12C310.549 39.64 311.295 39.4 312.309 39.4H324.309C325.322 39.4 326.042 39.64 326.469 40.12C326.949 40.5467 327.189 41.2667 327.189 42.28V94.12C327.189 95.1333 326.949 95.88 326.469 96.36C326.042 96.7867 325.322 97 324.309 97H312.309C311.295 97 310.549 96.7867 310.069 96.36C309.642 95.88 309.429 95.1333 309.429 94.12V84.28L295.749 67.72V94.12C295.749 95.1333 295.509 95.88 295.029 96.36C294.602 96.7867 293.882 97 292.869 97ZM382.611 97H369.651C368.637 97 367.891 96.7867 367.411 96.36C366.984 95.88 366.771 95.1333 366.771 94.12V54.84H355.011C353.997 54.84 353.251 54.6267 352.771 54.2C352.344 53.72 352.131 52.9733 352.131 51.96V42.28C352.131 41.2667 352.344 40.5467 352.771 40.12C353.251 39.64 353.997 39.4 355.011 39.4H397.251C398.264 39.4 398.984 39.64 399.411 40.12C399.891 40.5467 400.131 41.2667 400.131 42.28V51.96C400.131 52.9733 399.891 53.72 399.411 54.2C398.984 54.6267 398.264 54.84 397.251 54.84H385.491V94.12C385.491 95.1333 385.251 95.88 384.771 96.36C384.344 96.7867 383.624 97 382.611 97ZM425.991 53.8V64.04H431.991C433.377 64.04 434.311 63.6933 434.791 63C435.271 62.2533 435.511 61.3467 435.511 60.28V57.56C435.511 56.4933 435.271 55.6133 434.791 54.92C434.311 54.1733 433.377 53.8 431.991 53.8H425.991ZM423.111 97H410.791C409.777 97 409.031 96.7867 408.551 96.36C408.124 95.88 407.911 95.1333 407.911 94.12V42.28C407.911 41.2667 408.124 40.5467 408.551 40.12C409.031 39.64 409.777 39.4 410.791 39.4H437.431C443.404 39.4 447.511 40.6533 449.751 43.16C452.044 45.6133 453.191 48.8133 453.191 52.76V56.44C453.191 58.68 452.844 60.6 452.151 62.2C451.511 63.7467 450.364 64.8667 448.711 65.56C451.591 65.88 453.911 67.0533 455.671 69.08C457.484 71.1067 458.391 73.8 458.391 77.16V94.12C458.391 95.1333 458.151 95.88 457.671 96.36C457.244 96.7867 456.524 97 455.511 97H443.111C442.097 97 441.351 96.7867 440.871 96.36C440.444 95.88 440.231 95.1333 440.231 94.12V81.88C440.231 80.7067 439.991 79.8533 439.511 79.32C439.084 78.7333 438.311 78.44 437.191 78.44H425.991V94.12C425.991 95.1333 425.751 95.88 425.271 96.36C424.844 96.7867 424.124 97 423.111 97ZM488.244 56.2L484.484 68.36H497.044L493.284 56.2C493.07 55.72 492.83 55.3733 492.564 55.16C492.35 54.9467 492.084 54.84 491.764 54.84H489.764C489.444 54.84 489.15 54.9467 488.884 55.16C488.67 55.3733 488.457 55.72 488.244 56.2ZM483.684 94.12C483.684 95.1333 483.444 95.88 482.964 96.36C482.537 96.7867 481.817 97 480.804 97H469.044C468.03 97 467.284 96.7867 466.804 96.36C466.377 95.88 466.164 95.1333 466.164 94.12V73C466.164 71.4 466.404 69.56 466.884 67.48C467.417 65.4 468.217 62.9733 469.284 60.2L476.244 42.04C476.564 41.1333 477.044 40.4667 477.684 40.04C478.377 39.6133 479.257 39.4 480.324 39.4H501.844C502.857 39.4 503.684 39.6133 504.324 40.04C505.017 40.4667 505.524 41.1333 505.844 42.04L512.804 60.2C513.87 62.9733 514.644 65.4 515.124 67.48C515.657 69.56 515.924 71.4 515.924 73V94.12C515.924 95.1333 515.684 95.88 515.204 96.36C514.777 96.7867 514.057 97 513.044 97H500.964C499.897 97 499.097 96.7867 498.564 96.36C498.084 95.88 497.844 95.1333 497.844 94.12V82.92H483.684V94.12ZM540.681 97H528.681C527.668 97 526.921 96.7867 526.441 96.36C526.015 95.88 525.801 95.1333 525.801 94.12V42.28C525.801 41.2667 526.015 40.5467 526.441 40.12C526.921 39.64 527.668 39.4 528.681 39.4H537.001C538.015 39.4 538.868 39.56 539.561 39.88C540.308 40.2 541.028 40.76 541.721 41.56L557.241 59.32V42.28C557.241 41.2667 557.455 40.5467 557.881 40.12C558.361 39.64 559.108 39.4 560.121 39.4H572.121C573.135 39.4 573.855 39.64 574.281 40.12C574.761 40.5467 575.001 41.2667 575.001 42.28V94.12C575.001 95.1333 574.761 95.88 574.281 96.36C573.855 96.7867 573.135 97 572.121 97H560.121C559.108 97 558.361 96.7867 557.881 96.36C557.455 95.88 557.241 95.1333 557.241 94.12V84.28L543.561 67.72V94.12C543.561 95.1333 543.321 95.88 542.841 96.36C542.415 96.7867 541.695 97 540.681 97Z" fill="#F4C542"/>
<path id="FULL-STACK DEV &#38; MAKER" d="M59.245 133H54.285C53.8797 133 53.581 132.915 53.389 132.744C53.2183 132.552 53.133 132.253 53.133 131.848V111.112C53.133 110.707 53.2183 110.419 53.389 110.248C53.581 110.056 53.8797 109.96 54.285 109.96H68.557C68.9623 109.96 69.2503 110.056 69.421 110.248C69.613 110.419 69.709 110.707 69.709 111.112V114.92C69.709 115.325 69.613 115.624 69.421 115.816C69.2503 115.987 68.9623 116.072 68.557 116.072H60.397V119.4H65.965C66.3703 119.4 66.6583 119.496 66.829 119.688C67.021 119.859 67.117 120.147 67.117 120.552V124.392C67.117 124.797 67.021 125.096 66.829 125.288C66.6583 125.459 66.3703 125.544 65.965 125.544H60.397V131.848C60.397 132.253 60.301 132.552 60.109 132.744C59.9383 132.915 59.6503 133 59.245 133ZM95.7302 126.952C95.7302 127.933 95.5809 128.829 95.2822 129.64C95.0049 130.429 94.4929 131.112 93.7462 131.688C93.0209 132.243 92.0182 132.68 90.7382 133C89.4582 133.32 87.8262 133.48 85.8422 133.48C83.8582 133.48 82.2262 133.32 80.9462 133C79.6662 132.68 78.6529 132.243 77.9062 131.688C77.1809 131.112 76.6689 130.429 76.3702 129.64C76.0929 128.829 75.9542 127.933 75.9542 126.952V111.112C75.9542 110.707 76.0396 110.419 76.2102 110.248C76.4022 110.056 76.7009 109.96 77.1062 109.96H82.1302C82.5356 109.96 82.8236 110.056 82.9942 110.248C83.1862 110.419 83.2822 110.707 83.2822 111.112V125.704C83.2822 126.131 83.4422 126.493 83.7622 126.792C84.0822 127.069 84.7969 127.208 85.9062 127.208C87.0369 127.208 87.7622 127.069 88.0822 126.792C88.4022 126.493 88.5622 126.131 88.5622 125.704V111.112C88.5622 110.707 88.6476 110.419 88.8182 110.248C89.0102 110.056 89.3089 109.96 89.7142 109.96H94.5782C94.9836 109.96 95.2716 110.056 95.4422 110.248C95.6342 110.419 95.7302 110.707 95.7302 111.112V126.952ZM120.629 133H104.341C103.936 133 103.637 132.915 103.445 132.744C103.275 132.552 103.189 132.253 103.189 131.848V111.112C103.189 110.707 103.275 110.419 103.445 110.248C103.637 110.056 103.936 109.96 104.341 109.96H109.301C109.707 109.96 109.995 110.056 110.165 110.248C110.357 110.419 110.453 110.707 110.453 111.112V126.952H114.837V121.768C114.837 121.363 114.923 121.075 115.093 120.904C115.285 120.712 115.584 120.616 115.989 120.616H120.629C121.035 120.616 121.323 120.712 121.493 120.904C121.685 121.075 121.781 121.363 121.781 121.768V131.848C121.781 132.253 121.685 132.552 121.493 132.744C121.323 132.915 121.035 133 120.629 133ZM146.079 133H129.791C129.386 133 129.087 132.915 128.895 132.744C128.725 132.552 128.639 132.253 128.639 131.848V111.112C128.639 110.707 128.725 110.419 128.895 110.248C129.087 110.056 129.386 109.96 129.791 109.96H134.751C135.157 109.96 135.445 110.056 135.615 110.248C135.807 110.419 135.903 110.707 135.903 111.112V126.952H140.287V121.768C140.287 121.363 140.373 121.075 140.543 120.904C140.735 120.712 141.034 120.616 141.439 120.616H146.079C146.485 120.616 146.773 120.712 146.943 120.904C147.135 121.075 147.231 121.363 147.231 121.768V131.848C147.231 132.253 147.135 132.552 146.943 132.744C146.773 132.915 146.485 133 146.079 133ZM154.313 124.776C153.908 124.776 153.609 124.691 153.417 124.52C153.247 124.328 153.161 124.029 153.161 123.624V119.336C153.161 118.931 153.247 118.643 153.417 118.472C153.609 118.28 153.908 118.184 154.313 118.184H162.889C163.295 118.184 163.583 118.28 163.753 118.472C163.945 118.643 164.041 118.931 164.041 119.336V123.624C164.041 124.029 163.945 124.328 163.753 124.52C163.583 124.691 163.295 124.776 162.889 124.776H154.313ZM181.415 133H171.303C170.897 133 170.599 132.915 170.407 132.744C170.236 132.552 170.151 132.253 170.151 131.848V128.104C170.151 127.699 170.236 127.411 170.407 127.24C170.599 127.048 170.897 126.952 171.303 126.952H179.911C180.188 126.952 180.391 126.867 180.519 126.696C180.668 126.504 180.743 126.28 180.743 126.024C180.743 125.661 180.668 125.395 180.519 125.224C180.391 125.053 180.188 124.957 179.911 124.936L175.111 124.264C173.617 124.051 172.412 123.56 171.495 122.792C170.599 122.024 170.151 120.744 170.151 118.952V115.592C170.151 113.779 170.737 112.392 171.911 111.432C173.084 110.451 174.705 109.96 176.775 109.96H185.735C186.14 109.96 186.428 110.056 186.599 110.248C186.791 110.419 186.887 110.707 186.887 111.112V114.92C186.887 115.325 186.791 115.624 186.599 115.816C186.428 115.987 186.14 116.072 185.735 116.072H178.279C178.001 116.072 177.788 116.168 177.639 116.36C177.489 116.531 177.415 116.755 177.415 117.032C177.415 117.309 177.489 117.544 177.639 117.736C177.788 117.928 178.001 118.035 178.279 118.056L183.047 118.696C184.54 118.909 185.745 119.4 186.663 120.168C187.58 120.936 188.039 122.216 188.039 124.008V127.368C188.039 129.181 187.441 130.579 186.247 131.56C185.073 132.52 183.463 133 181.415 133ZM205.307 133H200.123C199.717 133 199.419 132.915 199.227 132.744C199.056 132.552 198.971 132.253 198.971 131.848V116.136H194.267C193.861 116.136 193.563 116.051 193.371 115.88C193.2 115.688 193.115 115.389 193.115 114.984V111.112C193.115 110.707 193.2 110.419 193.371 110.248C193.563 110.056 193.861 109.96 194.267 109.96H211.163C211.568 109.96 211.856 110.056 212.027 110.248C212.219 110.419 212.315 110.707 212.315 111.112V114.984C212.315 115.389 212.219 115.688 212.027 115.88C211.856 116.051 211.568 116.136 211.163 116.136H206.459V131.848C206.459 132.253 206.363 132.552 206.171 132.744C206 132.915 205.712 133 205.307 133ZM225.697 116.68L224.193 121.544H229.217L227.713 116.68C227.628 116.488 227.532 116.349 227.425 116.264C227.34 116.179 227.233 116.136 227.105 116.136H226.305C226.177 116.136 226.06 116.179 225.953 116.264C225.868 116.349 225.783 116.488 225.697 116.68ZM223.873 131.848C223.873 132.253 223.777 132.552 223.585 132.744C223.415 132.915 223.127 133 222.721 133H218.017C217.612 133 217.313 132.915 217.121 132.744C216.951 132.552 216.865 132.253 216.865 131.848V123.4C216.865 122.76 216.961 122.024 217.153 121.192C217.367 120.36 217.687 119.389 218.113 118.28L220.897 111.016C221.025 110.653 221.217 110.387 221.473 110.216C221.751 110.045 222.103 109.96 222.529 109.96H231.137C231.543 109.96 231.873 110.045 232.129 110.216C232.407 110.387 232.609 110.653 232.737 111.016L235.521 118.28C235.948 119.389 236.257 120.36 236.449 121.192C236.663 122.024 236.769 122.76 236.769 123.4V131.848C236.769 132.253 236.673 132.552 236.481 132.744C236.311 132.915 236.023 133 235.617 133H230.785C230.359 133 230.039 132.915 229.825 132.744C229.633 132.552 229.537 132.253 229.537 131.848V127.368H223.873V131.848ZM259.248 133H251.44C248.774 133 246.79 132.467 245.488 131.4C244.208 130.333 243.568 128.691 243.568 126.472V116.52C243.568 114.301 244.208 112.659 245.488 111.592C246.79 110.504 248.774 109.96 251.44 109.96H259.248C259.654 109.96 259.942 110.056 260.112 110.248C260.304 110.419 260.4 110.707 260.4 111.112V114.984C260.4 115.389 260.304 115.688 260.112 115.88C259.942 116.051 259.654 116.136 259.248 116.136H252.816C252.155 116.136 251.664 116.275 251.344 116.552C251.024 116.808 250.864 117.203 250.864 117.736V125.352C250.864 125.885 251.024 126.28 251.344 126.536C251.664 126.771 252.155 126.888 252.816 126.888H259.248C259.654 126.888 259.942 126.984 260.112 127.176C260.304 127.347 260.4 127.635 260.4 128.04V131.848C260.4 132.253 260.304 132.552 260.112 132.744C259.942 132.915 259.654 133 259.248 133ZM273.326 133H268.366C267.961 133 267.662 132.915 267.47 132.744C267.3 132.552 267.214 132.253 267.214 131.848V111.112C267.214 110.707 267.3 110.419 267.47 110.248C267.662 110.056 267.961 109.96 268.366 109.96H273.326C273.732 109.96 274.02 110.056 274.19 110.248C274.382 110.419 274.478 110.707 274.478 111.112V118.472H275.758L279.054 111.016C279.204 110.632 279.406 110.365 279.662 110.216C279.918 110.045 280.249 109.96 280.654 109.96H285.582C285.945 109.96 286.19 110.056 286.318 110.248C286.446 110.419 286.436 110.675 286.286 111.016L283.022 118.472C284.217 118.536 285.166 118.963 285.87 119.752C286.596 120.52 286.958 121.544 286.958 122.824V131.848C286.958 132.253 286.862 132.552 286.67 132.744C286.5 132.915 286.212 133 285.806 133H280.878C280.473 133 280.174 132.915 279.982 132.744C279.812 132.552 279.726 132.253 279.726 131.848V125.608C279.726 125.267 279.641 125 279.47 124.808C279.3 124.616 279.044 124.52 278.702 124.52H274.478V131.848C274.478 132.253 274.382 132.552 274.19 132.744C274.02 132.915 273.732 133 273.326 133ZM316.613 133H305.829C305.423 133 305.125 132.915 304.933 132.744C304.762 132.552 304.677 132.253 304.677 131.848V111.112C304.677 110.707 304.762 110.419 304.933 110.248C305.125 110.056 305.423 109.96 305.829 109.96H316.613C319.279 109.96 321.253 110.493 322.533 111.56C323.834 112.627 324.485 114.269 324.485 116.488V126.472C324.485 128.691 323.834 130.333 322.533 131.4C321.253 132.467 319.279 133 316.613 133ZM311.941 116.072V126.952H315.749C316.261 126.952 316.634 126.824 316.869 126.568C317.125 126.312 317.253 125.917 317.253 125.384V117.608C317.253 117.075 317.125 116.691 316.869 116.456C316.634 116.2 316.261 116.072 315.749 116.072H311.941ZM347.752 133H332.904C332.498 133 332.2 132.915 332.008 132.744C331.837 132.552 331.752 132.253 331.752 131.848V111.112C331.752 110.707 331.837 110.419 332.008 110.248C332.2 110.056 332.498 109.96 332.904 109.96H347.752C348.157 109.96 348.445 110.056 348.616 110.248C348.808 110.419 348.904 110.707 348.904 111.112V114.856C348.904 115.261 348.808 115.56 348.616 115.752C348.445 115.923 348.157 116.008 347.752 116.008H338.92V118.472H345.16C345.565 118.472 345.853 118.568 346.024 118.76C346.216 118.931 346.312 119.219 346.312 119.624V123.048C346.312 123.453 346.216 123.752 346.024 123.944C345.853 124.115 345.565 124.2 345.16 124.2H338.92V126.952H347.752C348.157 126.952 348.445 127.048 348.616 127.24C348.808 127.411 348.904 127.699 348.904 128.104V131.848C348.904 132.253 348.808 132.552 348.616 132.744C348.445 132.915 348.157 133 347.752 133ZM369.521 133H361.201C360.796 133 360.455 132.925 360.177 132.776C359.921 132.627 359.719 132.349 359.569 131.944L356.433 124.104C356.241 123.635 356.081 123.229 355.953 122.888C355.825 122.525 355.719 122.184 355.633 121.864C355.548 121.544 355.484 121.213 355.441 120.872C355.42 120.509 355.409 120.072 355.409 119.56V111.112C355.409 110.707 355.495 110.419 355.665 110.248C355.857 110.056 356.156 109.96 356.561 109.96H361.649C362.055 109.96 362.364 110.056 362.577 110.248C362.791 110.419 362.897 110.707 362.897 111.112V119.944C362.897 120.157 362.919 120.371 362.961 120.584C363.004 120.797 363.068 121.021 363.153 121.256L364.657 125.736C364.721 125.949 364.796 126.099 364.881 126.184C364.967 126.248 365.095 126.28 365.265 126.28H365.617C365.788 126.28 365.916 126.248 366.001 126.184C366.087 126.099 366.161 125.949 366.225 125.736L367.729 121.224C367.815 120.989 367.879 120.765 367.921 120.552C367.964 120.339 367.985 120.125 367.985 119.912V111.112C367.985 110.707 368.071 110.419 368.241 110.248C368.433 110.056 368.732 109.96 369.137 109.96H374.161C374.567 109.96 374.855 110.056 375.025 110.248C375.217 110.419 375.313 110.707 375.313 111.112V119.56C375.313 120.072 375.292 120.509 375.249 120.872C375.228 121.213 375.175 121.544 375.089 121.864C375.004 122.184 374.897 122.525 374.769 122.888C374.641 123.229 374.481 123.635 374.289 124.104L371.153 131.944C371.004 132.349 370.791 132.627 370.513 132.776C370.257 132.925 369.927 133 369.521 133ZM410.347 127.016H414.891C415.36 127.016 415.68 126.909 415.851 126.696C416.022 126.483 416.107 126.163 416.107 125.736V121.32C416.107 120.915 416.192 120.627 416.363 120.456C416.555 120.264 416.854 120.168 417.259 120.168H423.467C423.872 120.168 424.16 120.264 424.331 120.456C424.523 120.627 424.619 120.915 424.619 121.32V124.776C424.619 125.181 424.523 125.48 424.331 125.672C424.16 125.843 423.872 125.928 423.467 125.928H422.731V127.368C422.731 129.075 422.24 130.44 421.259 131.464C420.278 132.488 418.859 133 417.003 133H408.107C406.144 133 404.64 132.488 403.595 131.464C402.571 130.44 402.059 129.075 402.059 127.368V124.808C402.059 123.315 402.443 122.141 403.211 121.288C403.979 120.435 404.939 119.955 406.091 119.848C405.387 119.549 404.896 119.101 404.619 118.504C404.342 117.907 404.203 117.203 404.203 116.392V114.856C404.203 113.448 404.683 112.285 405.643 111.368C406.624 110.429 408.192 109.96 410.347 109.96H417.099C417.504 109.96 417.792 110.056 417.963 110.248C418.155 110.419 418.251 110.707 418.251 111.112V114.792C418.251 115.197 418.155 115.496 417.963 115.688C417.792 115.859 417.504 115.944 417.099 115.944H412.427C411.915 115.944 411.584 116.04 411.435 116.232C411.286 116.424 411.211 116.648 411.211 116.904V117.576C411.211 117.832 411.286 118.056 411.435 118.248C411.584 118.44 411.915 118.536 412.427 118.536H412.907C413.312 118.536 413.6 118.632 413.771 118.824C413.963 118.995 414.059 119.283 414.059 119.688V122.984C414.059 123.389 413.963 123.688 413.771 123.88C413.6 124.051 413.312 124.136 412.907 124.136H410.347C409.835 124.136 409.504 124.232 409.355 124.424C409.206 124.595 409.131 124.808 409.131 125.064V126.056C409.131 126.312 409.206 126.536 409.355 126.728C409.504 126.92 409.835 127.016 410.347 127.016ZM457.478 133H452.71C452.305 133 452.006 132.915 451.814 132.744C451.643 132.552 451.558 132.253 451.558 131.848V111.112C451.558 110.707 451.643 110.419 451.814 110.248C452.006 110.056 452.305 109.96 452.71 109.96H457.862C458.203 109.96 458.481 110.035 458.694 110.184C458.929 110.333 459.142 110.579 459.334 110.92L462.214 116.136C462.321 116.328 462.406 116.467 462.47 116.552C462.555 116.637 462.662 116.68 462.79 116.68H463.078C463.206 116.68 463.302 116.637 463.366 116.552C463.451 116.467 463.547 116.328 463.654 116.136L466.502 110.92C466.694 110.579 466.897 110.333 467.11 110.184C467.345 110.035 467.633 109.96 467.974 109.96H473.158C473.563 109.96 473.851 110.056 474.022 110.248C474.214 110.419 474.31 110.707 474.31 111.112V131.848C474.31 132.253 474.214 132.552 474.022 132.744C473.851 132.915 473.563 133 473.158 133H468.23C467.825 133 467.526 132.915 467.334 132.744C467.163 132.552 467.078 132.253 467.078 131.848V120.584L465.19 124.072C464.998 124.435 464.763 124.701 464.486 124.872C464.23 125.021 463.899 125.096 463.494 125.096H462.214C461.809 125.096 461.467 125.021 461.19 124.872C460.934 124.701 460.71 124.435 460.518 124.072L458.63 120.584V131.848C458.63 132.253 458.534 132.552 458.342 132.744C458.171 132.915 457.883 133 457.478 133ZM490.266 116.68L488.762 121.544H493.786L492.282 116.68C492.197 116.488 492.101 116.349 491.994 116.264C491.909 116.179 491.802 116.136 491.674 116.136H490.874C490.746 116.136 490.629 116.179 490.522 116.264C490.437 116.349 490.352 116.488 490.266 116.68ZM488.442 131.848C488.442 132.253 488.346 132.552 488.154 132.744C487.984 132.915 487.696 133 487.29 133H482.586C482.181 133 481.882 132.915 481.69 132.744C481.52 132.552 481.434 132.253 481.434 131.848V123.4C481.434 122.76 481.53 122.024 481.722 121.192C481.936 120.36 482.256 119.389 482.682 118.28L485.466 111.016C485.594 110.653 485.786 110.387 486.042 110.216C486.32 110.045 486.672 109.96 487.098 109.96H495.706C496.112 109.96 496.442 110.045 496.698 110.216C496.976 110.387 497.178 110.653 497.306 111.016L500.09 118.28C500.517 119.389 500.826 120.36 501.018 121.192C501.232 122.024 501.338 122.76 501.338 123.4V131.848C501.338 132.253 501.242 132.552 501.05 132.744C500.88 132.915 500.592 133 500.186 133H495.354C494.928 133 494.608 132.915 494.394 132.744C494.202 132.552 494.106 132.253 494.106 131.848V127.368H488.442V131.848ZM511.401 133H506.441C506.036 133 505.737 132.915 505.545 132.744C505.375 132.552 505.289 132.253 505.289 131.848V111.112C505.289 110.707 505.375 110.419 505.545 110.248C505.737 110.056 506.036 109.96 506.441 109.96H511.401C511.807 109.96 512.095 110.056 512.265 110.248C512.457 110.419 512.553 110.707 512.553 111.112V118.472H513.833L517.129 111.016C517.279 110.632 517.481 110.365 517.737 110.216C517.993 110.045 518.324 109.96 518.729 109.96H523.657C524.02 109.96 524.265 110.056 524.393 110.248C524.521 110.419 524.511 110.675 524.361 111.016L521.097 118.472C522.292 118.536 523.241 118.963 523.945 119.752C524.671 120.52 525.033 121.544 525.033 122.824V131.848C525.033 132.253 524.937 132.552 524.745 132.744C524.575 132.915 524.287 133 523.881 133H518.953C518.548 133 518.249 132.915 518.057 132.744C517.887 132.552 517.801 132.253 517.801 131.848V125.608C517.801 125.267 517.716 125 517.545 124.808C517.375 124.616 517.119 124.52 516.777 124.52H512.553V131.848C512.553 132.253 512.457 132.552 512.265 132.744C512.095 132.915 511.807 133 511.401 133ZM548.364 133H533.516C533.111 133 532.812 132.915 532.62 132.744C532.45 132.552 532.364 132.253 532.364 131.848V111.112C532.364 110.707 532.45 110.419 532.62 110.248C532.812 110.056 533.111 109.96 533.516 109.96H548.364C548.77 109.96 549.058 110.056 549.228 110.248C549.42 110.419 549.516 110.707 549.516 111.112V114.856C549.516 115.261 549.42 115.56 549.228 115.752C549.058 115.923 548.77 116.008 548.364 116.008H539.532V118.472H545.772C546.178 118.472 546.466 118.568 546.636 118.76C546.828 118.931 546.924 119.219 546.924 119.624V123.048C546.924 123.453 546.828 123.752 546.636 123.944C546.466 124.115 546.178 124.2 545.772 124.2H539.532V126.952H548.364C548.77 126.952 549.058 127.048 549.228 127.24C549.42 127.411 549.516 127.699 549.516 128.104V131.848C549.516 132.253 549.42 132.552 549.228 132.744C549.058 132.915 548.77 133 548.364 133ZM563.734 115.72V119.816H566.134C566.688 119.816 567.062 119.677 567.254 119.4C567.446 119.101 567.542 118.739 567.542 118.312V117.224C567.542 116.797 567.446 116.445 567.254 116.168C567.062 115.869 566.688 115.72 566.134 115.72H563.734ZM562.582 133H557.654C557.248 133 556.95 132.915 556.758 132.744C556.587 132.552 556.502 132.253 556.502 131.848V111.112C556.502 110.707 556.587 110.419 556.758 110.248C556.95 110.056 557.248 109.96 557.654 109.96H568.31C570.699 109.96 572.342 110.461 573.238 111.464C574.155 112.445 574.614 113.725 574.614 115.304V116.776C574.614 117.672 574.475 118.44 574.198 119.08C573.942 119.699 573.483 120.147 572.822 120.424C573.974 120.552 574.902 121.021 575.606 121.832C576.331 122.643 576.694 123.72 576.694 125.064V131.848C576.694 132.253 576.598 132.552 576.406 132.744C576.235 132.915 575.947 133 575.542 133H570.582C570.176 133 569.878 132.915 569.686 132.744C569.515 132.552 569.43 132.253 569.43 131.848V126.952C569.43 126.483 569.334 126.141 569.142 125.928C568.971 125.693 568.662 125.576 568.214 125.576H563.734V131.848C563.734 132.253 563.638 132.552 563.446 132.744C563.275 132.915 562.987 133 562.582 133Z" fill="#F4C542"/>
<path id="Portfolio" d="M267.303 154H265.133C264.955 154 264.825 153.963 264.741 153.888C264.666 153.804 264.629 153.673 264.629 153.496V144.424C264.629 144.247 264.666 144.121 264.741 144.046C264.825 143.962 264.955 143.92 265.133 143.92H269.417C270.686 143.92 271.554 144.172 272.021 144.676C272.487 145.18 272.721 145.838 272.721 146.65V148.442C272.721 149.254 272.487 149.912 272.021 150.416C271.554 150.92 270.686 151.172 269.417 151.172H267.807V153.496C267.807 153.673 267.765 153.804 267.681 153.888C267.606 153.963 267.48 154 267.303 154ZM267.779 146.538V148.652H269.039C269.309 148.652 269.487 148.582 269.571 148.442C269.655 148.302 269.697 148.143 269.697 147.966V147.224C269.697 147.047 269.655 146.888 269.571 146.748C269.487 146.608 269.309 146.538 269.039 146.538H267.779ZM284.112 151.354C284.112 151.783 284.046 152.175 283.916 152.53C283.794 152.875 283.57 153.174 283.244 153.426C282.926 153.669 282.483 153.86 281.914 154C281.354 154.14 280.64 154.21 279.772 154.21C278.904 154.21 278.185 154.14 277.616 154C277.046 153.86 276.598 153.669 276.272 153.426C275.954 153.174 275.73 152.875 275.6 152.53C275.478 152.175 275.418 151.783 275.418 151.354V146.58C275.418 146.151 275.478 145.763 275.6 145.418C275.73 145.063 275.954 144.76 276.272 144.508C276.598 144.256 277.046 144.06 277.616 143.92C278.185 143.78 278.904 143.71 279.772 143.71C280.64 143.71 281.354 143.78 281.914 143.92C282.483 144.06 282.926 144.256 283.244 144.508C283.57 144.76 283.794 145.063 283.916 145.418C284.046 145.763 284.112 146.151 284.112 146.58V151.354ZM278.596 150.85C278.596 151.037 278.666 151.195 278.806 151.326C278.946 151.447 279.268 151.508 279.772 151.508C280.276 151.508 280.598 151.447 280.738 151.326C280.878 151.195 280.948 151.037 280.948 150.85V147.084C280.948 146.907 280.878 146.757 280.738 146.636C280.598 146.505 280.276 146.44 279.772 146.44C279.268 146.44 278.946 146.505 278.806 146.636C278.666 146.757 278.596 146.907 278.596 147.084V150.85ZM290.458 146.44V148.232H291.508C291.751 148.232 291.914 148.171 291.998 148.05C292.082 147.919 292.124 147.761 292.124 147.574V147.098C292.124 146.911 292.082 146.757 291.998 146.636C291.914 146.505 291.751 146.44 291.508 146.44H290.458ZM289.954 154H287.798C287.621 154 287.49 153.963 287.406 153.888C287.331 153.804 287.294 153.673 287.294 153.496V144.424C287.294 144.247 287.331 144.121 287.406 144.046C287.49 143.962 287.621 143.92 287.798 143.92H292.46C293.505 143.92 294.224 144.139 294.616 144.578C295.017 145.007 295.218 145.567 295.218 146.258V146.902C295.218 147.294 295.157 147.63 295.036 147.91C294.924 148.181 294.723 148.377 294.434 148.498C294.938 148.554 295.344 148.759 295.652 149.114C295.969 149.469 296.128 149.94 296.128 150.528V153.496C296.128 153.673 296.086 153.804 296.002 153.888C295.927 153.963 295.801 154 295.624 154H293.454C293.277 154 293.146 153.963 293.062 153.888C292.987 153.804 292.95 153.673 292.95 153.496V151.354C292.95 151.149 292.908 150.999 292.824 150.906C292.749 150.803 292.614 150.752 292.418 150.752H290.458V153.496C290.458 153.673 290.416 153.804 290.332 153.888C290.257 153.963 290.131 154 289.954 154ZM303.434 154H301.166C300.989 154 300.858 153.963 300.774 153.888C300.7 153.804 300.662 153.673 300.662 153.496V146.622H298.604C298.427 146.622 298.296 146.585 298.212 146.51C298.138 146.426 298.1 146.295 298.1 146.118V144.424C298.1 144.247 298.138 144.121 298.212 144.046C298.296 143.962 298.427 143.92 298.604 143.92H305.996C306.174 143.92 306.3 143.962 306.374 144.046C306.458 144.121 306.5 144.247 306.5 144.424V146.118C306.5 146.295 306.458 146.426 306.374 146.51C306.3 146.585 306.174 146.622 305.996 146.622H303.938V153.496C303.938 153.673 303.896 153.804 303.812 153.888C303.738 153.963 303.612 154 303.434 154ZM311.936 154H309.766C309.589 154 309.458 153.963 309.374 153.888C309.299 153.804 309.262 153.673 309.262 153.496V144.424C309.262 144.247 309.299 144.121 309.374 144.046C309.458 143.962 309.589 143.92 309.766 143.92H316.01C316.187 143.92 316.313 143.962 316.388 144.046C316.472 144.121 316.514 144.247 316.514 144.424V146.09C316.514 146.267 316.472 146.398 316.388 146.482C316.313 146.557 316.187 146.594 316.01 146.594H312.44V148.05H314.876C315.053 148.05 315.179 148.092 315.254 148.176C315.338 148.251 315.38 148.377 315.38 148.554V150.234C315.38 150.411 315.338 150.542 315.254 150.626C315.179 150.701 315.053 150.738 314.876 150.738H312.44V153.496C312.44 153.673 312.398 153.804 312.314 153.888C312.239 153.963 312.113 154 311.936 154ZM327.788 151.354C327.788 151.783 327.723 152.175 327.592 152.53C327.471 152.875 327.247 153.174 326.92 153.426C326.603 153.669 326.159 153.86 325.59 154C325.03 154.14 324.316 154.21 323.448 154.21C322.58 154.21 321.861 154.14 321.292 154C320.723 153.86 320.275 153.669 319.948 153.426C319.631 153.174 319.407 152.875 319.276 152.53C319.155 152.175 319.094 151.783 319.094 151.354V146.58C319.094 146.151 319.155 145.763 319.276 145.418C319.407 145.063 319.631 144.76 319.948 144.508C320.275 144.256 320.723 144.06 321.292 143.92C321.861 143.78 322.58 143.71 323.448 143.71C324.316 143.71 325.03 143.78 325.59 143.92C326.159 144.06 326.603 144.256 326.92 144.508C327.247 144.76 327.471 145.063 327.592 145.418C327.723 145.763 327.788 146.151 327.788 146.58V151.354ZM322.272 150.85C322.272 151.037 322.342 151.195 322.482 151.326C322.622 151.447 322.944 151.508 323.448 151.508C323.952 151.508 324.274 151.447 324.414 151.326C324.554 151.195 324.624 151.037 324.624 150.85V147.084C324.624 146.907 324.554 146.757 324.414 146.636C324.274 146.505 323.952 146.44 323.448 146.44C322.944 146.44 322.622 146.505 322.482 146.636C322.342 146.757 322.272 146.907 322.272 147.084V150.85ZM338.6 154H331.474C331.297 154 331.166 153.963 331.082 153.888C331.007 153.804 330.97 153.673 330.97 153.496V144.424C330.97 144.247 331.007 144.121 331.082 144.046C331.166 143.962 331.297 143.92 331.474 143.92H333.644C333.821 143.92 333.947 143.962 334.022 144.046C334.106 144.121 334.148 144.247 334.148 144.424V151.354H336.066V149.086C336.066 148.909 336.103 148.783 336.178 148.708C336.262 148.624 336.393 148.582 336.57 148.582H338.6C338.777 148.582 338.903 148.624 338.978 148.708C339.062 148.783 339.104 148.909 339.104 149.086V153.496C339.104 153.673 339.062 153.804 338.978 153.888C338.903 153.963 338.777 154 338.6 154ZM342.384 154C342.207 154 342.076 153.963 341.992 153.888C341.918 153.804 341.88 153.673 341.88 153.496V151.83C341.88 151.653 341.918 151.527 341.992 151.452C342.076 151.368 342.207 151.326 342.384 151.326H343.77V146.622H342.384C342.207 146.622 342.076 146.585 341.992 146.51C341.918 146.426 341.88 146.295 341.88 146.118V144.424C341.88 144.247 341.918 144.121 341.992 144.046C342.076 143.962 342.207 143.92 342.384 143.92H348.348C348.526 143.92 348.652 143.962 348.726 144.046C348.81 144.121 348.852 144.247 348.852 144.424V146.118C348.852 146.295 348.81 146.426 348.726 146.51C348.652 146.585 348.526 146.622 348.348 146.622H346.99V151.326H348.348C348.526 151.326 348.652 151.368 348.726 151.452C348.81 151.527 348.852 151.653 348.852 151.83V153.496C348.852 153.673 348.81 153.804 348.726 153.888C348.652 153.963 348.526 154 348.348 154H342.384ZM360.521 151.354C360.521 151.783 360.456 152.175 360.325 152.53C360.204 152.875 359.98 153.174 359.653 153.426C359.336 153.669 358.892 153.86 358.323 154C357.763 154.14 357.049 154.21 356.181 154.21C355.313 154.21 354.594 154.14 354.025 154C353.456 153.86 353.008 153.669 352.681 153.426C352.364 153.174 352.14 152.875 352.009 152.53C351.888 152.175 351.827 151.783 351.827 151.354V146.58C351.827 146.151 351.888 145.763 352.009 145.418C352.14 145.063 352.364 144.76 352.681 144.508C353.008 144.256 353.456 144.06 354.025 143.92C354.594 143.78 355.313 143.71 356.181 143.71C357.049 143.71 357.763 143.78 358.323 143.92C358.892 144.06 359.336 144.256 359.653 144.508C359.98 144.76 360.204 145.063 360.325 145.418C360.456 145.763 360.521 146.151 360.521 146.58V151.354ZM355.005 150.85C355.005 151.037 355.075 151.195 355.215 151.326C355.355 151.447 355.677 151.508 356.181 151.508C356.685 151.508 357.007 151.447 357.147 151.326C357.287 151.195 357.357 151.037 357.357 150.85V147.084C357.357 146.907 357.287 146.757 357.147 146.636C357.007 146.505 356.685 146.44 356.181 146.44C355.677 146.44 355.355 146.505 355.215 146.636C355.075 146.757 355.005 146.907 355.005 147.084V150.85Z" fill="#F4C542"/>
<path id="EST. 2026" d="M502.629 154H496.133C495.955 154 495.825 153.963 495.741 153.888C495.666 153.804 495.629 153.673 495.629 153.496V144.424C495.629 144.247 495.666 144.121 495.741 144.046C495.825 143.962 495.955 143.92 496.133 143.92H502.629C502.806 143.92 502.932 143.962 503.007 144.046C503.091 144.121 503.133 144.247 503.133 144.424V146.062C503.133 146.239 503.091 146.37 503.007 146.454C502.932 146.529 502.806 146.566 502.629 146.566H498.765V147.644H501.495C501.672 147.644 501.798 147.686 501.873 147.77C501.957 147.845 501.999 147.971 501.999 148.148V149.646C501.999 149.823 501.957 149.954 501.873 150.038C501.798 150.113 501.672 150.15 501.495 150.15H498.765V151.354H502.629C502.806 151.354 502.932 151.396 503.007 151.48C503.091 151.555 503.133 151.681 503.133 151.858V153.496C503.133 153.673 503.091 153.804 503.007 153.888C502.932 153.963 502.806 154 502.629 154ZM510.865 154H506.441C506.264 154 506.133 153.963 506.049 153.888C505.974 153.804 505.937 153.673 505.937 153.496V151.858C505.937 151.681 505.974 151.555 506.049 151.48C506.133 151.396 506.264 151.354 506.441 151.354H510.207C510.328 151.354 510.417 151.317 510.473 151.242C510.538 151.158 510.571 151.06 510.571 150.948C510.571 150.789 510.538 150.673 510.473 150.598C510.417 150.523 510.328 150.481 510.207 150.472L508.107 150.178C507.454 150.085 506.926 149.87 506.525 149.534C506.133 149.198 505.937 148.638 505.937 147.854V146.384C505.937 145.591 506.194 144.984 506.707 144.564C507.22 144.135 507.93 143.92 508.835 143.92H512.755C512.932 143.92 513.058 143.962 513.133 144.046C513.217 144.121 513.259 144.247 513.259 144.424V146.09C513.259 146.267 513.217 146.398 513.133 146.482C513.058 146.557 512.932 146.594 512.755 146.594H509.493C509.372 146.594 509.278 146.636 509.213 146.72C509.148 146.795 509.115 146.893 509.115 147.014C509.115 147.135 509.148 147.238 509.213 147.322C509.278 147.406 509.372 147.453 509.493 147.462L511.579 147.742C512.232 147.835 512.76 148.05 513.161 148.386C513.562 148.722 513.763 149.282 513.763 150.066V151.536C513.763 152.329 513.502 152.941 512.979 153.37C512.466 153.79 511.761 154 510.865 154ZM521.318 154H519.05C518.872 154 518.742 153.963 518.658 153.888C518.583 153.804 518.546 153.673 518.546 153.496V146.622H516.488C516.31 146.622 516.18 146.585 516.096 146.51C516.021 146.426 515.984 146.295 515.984 146.118V144.424C515.984 144.247 516.021 144.121 516.096 144.046C516.18 143.962 516.31 143.92 516.488 143.92H523.88C524.057 143.92 524.183 143.962 524.258 144.046C524.342 144.121 524.384 144.247 524.384 144.424V146.118C524.384 146.295 524.342 146.426 524.258 146.51C524.183 146.585 524.057 146.622 523.88 146.622H521.822V153.496C521.822 153.673 521.78 153.804 521.696 153.888C521.621 153.963 521.495 154 521.318 154ZM529.297 154H526.469C526.291 154 526.161 153.963 526.077 153.888C526.002 153.804 525.965 153.673 525.965 153.496V150.654C525.965 150.477 526.002 150.351 526.077 150.276C526.161 150.192 526.291 150.15 526.469 150.15H529.297C529.474 150.15 529.6 150.192 529.675 150.276C529.759 150.351 529.801 150.477 529.801 150.654V153.496C529.801 153.673 529.759 153.804 529.675 153.888C529.6 153.963 529.474 154 529.297 154ZM544.104 154H537.44C537.262 154 537.132 153.963 537.048 153.888C536.973 153.804 536.936 153.673 536.936 153.496V151.088C536.936 150.547 536.987 150.103 537.09 149.758C537.202 149.403 537.356 149.114 537.552 148.89C537.748 148.666 537.981 148.489 538.252 148.358C538.522 148.227 538.816 148.115 539.134 148.022L541.01 147.434C541.159 147.397 541.257 147.341 541.304 147.266C541.36 147.191 541.388 147.079 541.388 146.93C541.388 146.79 541.36 146.697 541.304 146.65C541.248 146.594 541.15 146.566 541.01 146.566H537.972C537.794 146.566 537.664 146.529 537.58 146.454C537.505 146.37 537.468 146.239 537.468 146.062V144.424C537.468 144.247 537.505 144.121 537.58 144.046C537.664 143.962 537.794 143.92 537.972 143.92H542.102C542.895 143.92 543.502 144.121 543.922 144.522C544.351 144.914 544.566 145.488 544.566 146.244V147.56C544.566 148.26 544.37 148.797 543.978 149.17C543.586 149.543 543.054 149.833 542.382 150.038L540.478 150.64C540.338 150.677 540.24 150.719 540.184 150.766C540.137 150.813 540.114 150.911 540.114 151.06V151.354H544.104C544.281 151.354 544.407 151.396 544.482 151.48C544.566 151.555 544.608 151.681 544.608 151.858V153.496C544.608 153.673 544.566 153.804 544.482 153.888C544.407 153.963 544.281 154 544.104 154ZM556.083 151.354C556.083 151.783 556.022 152.175 555.901 152.53C555.78 152.875 555.56 153.174 555.243 153.426C554.926 153.669 554.487 153.86 553.927 154C553.376 154.14 552.672 154.21 551.813 154.21C550.954 154.21 550.245 154.14 549.685 154C549.134 153.86 548.7 153.669 548.383 153.426C548.066 153.174 547.842 152.875 547.711 152.53C547.59 152.175 547.529 151.783 547.529 151.354V146.58C547.529 146.151 547.59 145.763 547.711 145.418C547.842 145.063 548.066 144.76 548.383 144.508C548.7 144.256 549.134 144.06 549.685 143.92C550.245 143.78 550.954 143.71 551.813 143.71C552.672 143.71 553.376 143.78 553.927 143.92C554.487 144.06 554.926 144.256 555.243 144.508C555.56 144.76 555.78 145.063 555.901 145.418C556.022 145.763 556.083 146.151 556.083 146.58V151.354ZM550.693 150.85C550.693 151.037 550.758 151.195 550.889 151.326C551.029 151.447 551.337 151.508 551.813 151.508C552.289 151.508 552.592 151.447 552.723 151.326C552.863 151.195 552.933 151.037 552.933 150.85V147.084C552.933 146.907 552.863 146.757 552.723 146.636C552.592 146.505 552.289 146.44 551.813 146.44C551.337 146.44 551.029 146.505 550.889 146.636C550.758 146.757 550.693 146.907 550.693 147.084V150.85ZM566.017 154H559.353C559.176 154 559.045 153.963 558.961 153.888C558.886 153.804 558.849 153.673 558.849 153.496V151.088C558.849 150.547 558.9 150.103 559.003 149.758C559.115 149.403 559.269 149.114 559.465 148.89C559.661 148.666 559.894 148.489 560.165 148.358C560.436 148.227 560.73 148.115 561.047 148.022L562.923 147.434C563.072 147.397 563.17 147.341 563.217 147.266C563.273 147.191 563.301 147.079 563.301 146.93C563.301 146.79 563.273 146.697 563.217 146.65C563.161 146.594 563.063 146.566 562.923 146.566H559.885C559.708 146.566 559.577 146.529 559.493 146.454C559.418 146.37 559.381 146.239 559.381 146.062V144.424C559.381 144.247 559.418 144.121 559.493 144.046C559.577 143.962 559.708 143.92 559.885 143.92H564.015C564.808 143.92 565.415 144.121 565.835 144.522C566.264 144.914 566.479 145.488 566.479 146.244V147.56C566.479 148.26 566.283 148.797 565.891 149.17C565.499 149.543 564.967 149.833 564.295 150.038L562.391 150.64C562.251 150.677 562.153 150.719 562.097 150.766C562.05 150.813 562.027 150.911 562.027 151.06V151.354H566.017C566.194 151.354 566.32 151.396 566.395 151.48C566.479 151.555 566.521 151.681 566.521 151.858V153.496C566.521 153.673 566.479 153.804 566.395 153.888C566.32 153.963 566.194 154 566.017 154ZM573.642 154.21C572.784 154.21 572.079 154.14 571.528 154C570.987 153.869 570.562 153.683 570.254 153.44C569.946 153.188 569.732 152.889 569.61 152.544C569.498 152.199 569.442 151.811 569.442 151.382V146.79C569.442 145.941 569.685 145.25 570.17 144.718C570.665 144.186 571.57 143.92 572.886 143.92H576.106C576.284 143.92 576.41 143.962 576.484 144.046C576.568 144.121 576.61 144.247 576.61 144.424V146.076C576.61 146.253 576.568 146.384 576.484 146.468C576.41 146.543 576.284 146.58 576.106 146.58H573.488C573.143 146.58 572.91 146.636 572.788 146.748C572.667 146.851 572.606 147.075 572.606 147.42V147.728C572.83 147.663 573.087 147.611 573.376 147.574C573.675 147.537 574.011 147.518 574.384 147.518C575.644 147.518 576.508 147.733 576.974 148.162C577.441 148.582 577.674 149.207 577.674 150.038V151.382C577.674 151.811 577.614 152.199 577.492 152.544C577.38 152.889 577.17 153.188 576.862 153.44C576.564 153.683 576.153 153.869 575.63 154C575.108 154.14 574.445 154.21 573.642 154.21ZM572.606 150.332V151.158C572.606 151.307 572.662 151.433 572.774 151.536C572.886 151.629 573.143 151.676 573.544 151.676C573.964 151.676 574.23 151.629 574.342 151.536C574.454 151.433 574.51 151.307 574.51 151.158V150.332C574.51 150.192 574.454 150.075 574.342 149.982C574.23 149.879 573.964 149.828 573.544 149.828C573.143 149.828 572.886 149.879 572.774 149.982C572.662 150.075 572.606 150.192 572.606 150.332Z" fill="#F4C542"/>
<line id="Line 1" x1="76.5" y1="521" x2="76.5" y2="609" stroke="#97918A"/>
<line id="Line 2" x1="233.5" y1="521" x2="233.5" y2="609" stroke="#97918A"/>
<line id="Line 3" x1="392.5" y1="521" x2="392.5" y2="609" stroke="#97918A"/>
<line id="Line 4" x1="549.5" y1="521" x2="549.5" y2="609" stroke="#97918A"/>
<g id="DoorsLeft">
<g id="Rectangle 2">
<mask id="path-15-inside-1_16_21" fill="white">
<path d="M163 223H313V521H163V223Z"/>
</mask>
<path d="M163 223H313V521H163V223Z" fill="#D4FFFD"/>
<path d="M313 223H323V213H313V223ZM313 521V531H323V521H313ZM163 223V233H313V223V213H163V223ZM313 223H303V521H313H323V223H313ZM313 521V511H163V521V531H313V521Z" fill="#B8B8B8" mask="url(#path-15-inside-1_16_21)"/>
</g>
<rect id="Rectangle 10" x="306" y="354" width="5" height="33" rx="1" fill="#989898"/>
<rect id="Rectangle 15" x="173" y="511" width="139.976" height="10.0201" fill="#9D9D9D"/>
<rect id="Rectangle 18" x="173" y="223" width="139.976" height="10.0201" fill="#9D9D9D"/>
<path id="Rectangle 25" d="M302.972 487.434L302.972 499.458L172.931 336.431L172.931 323.902L302.972 487.434Z" fill="#C8FFFC"/>
<path id="Rectangle 21" d="M302.972 392.448L302.972 461.382L172.931 297.882L172.931 231.386L302.972 392.448Z" fill="#C8FFFC"/>
<g id="Rectangle 36" filter="url(#filter3_f_16_21)">
<path d="M173.89 287.374H304.273V509.819H173.89V287.374Z" fill="#327C97" fill-opacity="0.17"/>
</g>
</g>
<g id="DoorsRight">
<g id="Rectangle 3">
<mask id="path-23-inside-2_16_21" fill="white">
<path d="M312.988 223H462.988V521H312.988V223Z"/>
</mask>
<path d="M312.988 223H462.988V521H312.988V223Z" fill="#D4FFFD"/>
<path d="M312.988 223V213H302.988V223H312.988ZM312.988 521H302.988V531H312.988V521ZM312.988 223V233H462.988V223V213H312.988V223ZM462.988 521V511H312.988V521V531H462.988V521ZM312.988 521H322.988V223H312.988H302.988V521H312.988Z" fill="#B8B8B8" mask="url(#path-23-inside-2_16_21)"/>
</g>
<rect id="Rectangle 11" x="314.988" y="354" width="5" height="33" rx="1" fill="#989898"/>
<rect id="Rectangle 14" x="312.745" y="510.989" width="139.733" height="10.0108" fill="#9D9D9D"/>
<rect id="Rectangle 17" x="312.988" y="223" width="140" height="10" fill="#9D9D9D"/>
<path id="Rectangle 27" d="M452.53 488.358L452.53 500.875L322.988 338L322.893 325L452.53 488.358Z" fill="#C8FFFC"/>
<path id="Rectangle 23" d="M452.687 392.854L452.687 462.321L322.988 298L322.988 233L452.687 392.854Z" fill="#C8FFFC"/>
<g id="Rectangle 37" filter="url(#filter4_f_16_21)">
<path d="M322.078 289.073H452.476V511.313H322.078V289.073Z" fill="#327C97" fill-opacity="0.17"/>
</g>
</g>
<g id="WallLeft">
<g id="Rectangle 4">
<mask id="path-31-inside-3_16_21" fill="white">
<path d="M23 223H175V521H23V223Z"/>
</mask>
<path d="M23 223H175V521H23V223Z" fill="#D4FFFD"/>
<path d="M23 223V213H13V223H23ZM175 223H185V213H175V223ZM175 521V531H185V521H175ZM23 521H13V531H23V521ZM23 223V233H175V223V213H23V223ZM175 223H165V521H175H185V223H175ZM175 521V511H23V521V531H175V521ZM23 521H33V223H23H13V521H23Z" fill="#B8B8B8" mask="url(#path-31-inside-3_16_21)"/>
</g>
<rect id="Rectangle 13" x="23" y="511" width="152" height="10" fill="#9D9D9D"/>
<rect id="Rectangle 19" x="23" y="223" width="152" height="10" fill="#9D9D9D"/>
<path id="Rectangle 20" d="M165 393L165 463L33 300L33 233L165 393Z" fill="#C8FFFC"/>
<path id="Rectangle 24" d="M165 487L165 500L33 337L33 325L165 487Z" fill="#C8FFFC"/>
<g id="Rectangle 32" filter="url(#filter5_f_16_21)">
<path d="M35.527 266H163.459V511H35.527V266Z" fill="#327C97" fill-opacity="0.17"/>
</g>
</g>
<g id="WallRight">
<g id="Rectangle 5">
<mask id="path-38-inside-4_16_21" fill="white">
<path d="M452 223H604V521H452V223Z"/>
</mask>
<path d="M452 223H604V521H452V223Z" fill="#D4FFFD"/>
<path d="M452 223V213H442V223H452ZM604 223H614V213H604V223ZM604 521V531H614V521H604ZM452 521H442V531H452V521ZM452 223V233H604V223V213H452V223ZM604 223H594V521H604H614V223H604ZM604 521V511H452V521V531H604V521ZM452 521H462V223H452H442V521H452Z" fill="#B8B8B8" mask="url(#path-38-inside-4_16_21)"/>
</g>
<rect id="Rectangle 12" x="450" y="511" width="154" height="10" fill="#9D9D9D"/>
<path id="Rectangle 16" d="M451 223H604V233H451V223Z" fill="#9D9D9D"/>
<path id="Rectangle 26" d="M594 487L594 499L462 337L462 324L594 487Z" fill="#C8FFFC"/>
<path id="Rectangle 22" d="M594 393L594 462L462 300L462 233L594 393Z" fill="#C8FFFC"/>
<g id="Rectangle 34" filter="url(#filter6_f_16_21)">
<path d="M590.308 265.957H461.913V510.957H590.308V265.957Z" fill="#327C97" fill-opacity="0.17"/>
</g>
<g id="OpenSign">
<path id="Vector 1" d="M501.371 276.812L532.987 250.023L561.855 278.185" stroke="#979797"/>
<g id="Rectangle 29" filter="url(#filter7_d_16_21)">
<rect x="485.409" y="274.95" width="93" height="41" rx="6" transform="rotate(1.29979 485.409 274.95)" fill="#F0544F"/>
</g>
<rect id="Rectangle 30" x="488.34" y="278.017" width="87" height="35" rx="5" transform="rotate(1.29979 488.34 278.017)" fill="#F0544F" stroke="white" stroke-width="2"/>
<path id="Open" d="M510.607 300.992C510.59 301.728 510.463 302.397 510.225 303C510.004 303.587 509.608 304.09 509.038 304.509C508.485 304.913 507.718 305.224 506.737 305.441C505.771 305.66 504.545 305.752 503.057 305.718C501.57 305.684 500.341 305.536 499.371 305.274C498.4 305.012 497.64 304.667 497.089 304.238C496.555 303.794 496.183 303.273 495.973 302.676C495.778 302.064 495.69 301.39 495.706 300.654L495.892 292.472C495.909 291.736 496.028 291.075 496.249 290.488C496.487 289.885 496.883 289.374 497.436 288.954C498.006 288.535 498.781 288.216 499.763 287.999C500.744 287.781 501.978 287.689 503.466 287.723C504.953 287.756 506.174 287.904 507.129 288.166C508.099 288.428 508.851 288.781 509.385 289.225C509.935 289.67 510.307 290.198 510.502 290.811C510.712 291.408 510.809 292.074 510.792 292.81L510.607 300.992ZM501.173 299.914C501.165 300.234 501.279 300.508 501.514 300.738C501.749 300.951 502.299 301.068 503.163 301.087C504.026 301.107 504.581 301.015 504.825 300.813C505.07 300.594 505.196 300.325 505.204 300.005L505.35 293.551C505.357 293.247 505.243 292.988 505.008 292.775C504.773 292.545 504.223 292.421 503.36 292.401C502.496 292.382 501.941 292.481 501.696 292.7C501.452 292.902 501.326 293.155 501.319 293.459L501.173 299.914ZM520.54 305.755L516.821 305.67C516.517 305.663 516.295 305.594 516.154 305.463C516.029 305.316 515.97 305.091 515.977 304.787L516.33 289.239C516.337 288.935 516.406 288.72 516.537 288.595C516.684 288.455 516.909 288.388 517.213 288.395L524.555 288.561C526.731 288.611 528.209 289.076 528.989 289.958C529.769 290.84 530.143 291.977 530.112 293.368L530.042 296.44C530.011 297.831 529.585 298.95 528.766 299.796C527.946 300.641 526.449 301.039 524.273 300.99L521.514 300.927L521.424 304.91C521.417 305.214 521.34 305.437 521.193 305.577C521.062 305.702 520.844 305.761 520.54 305.755ZM521.646 292.984L521.564 296.607L523.724 296.656C524.188 296.667 524.494 296.554 524.644 296.317C524.793 296.081 524.871 295.81 524.878 295.506L524.907 294.235C524.914 293.931 524.848 293.657 524.709 293.414C524.571 293.171 524.27 293.044 523.806 293.033L521.646 292.984ZM546.709 306.348L535.576 306.096C535.272 306.089 535.05 306.02 534.908 305.889C534.784 305.742 534.725 305.516 534.732 305.212L535.085 289.664C535.091 289.36 535.16 289.146 535.291 289.021C535.438 288.88 535.664 288.813 535.968 288.82L547.101 289.073C547.405 289.08 547.619 289.157 547.744 289.303C547.885 289.435 547.952 289.652 547.945 289.956L547.882 292.763C547.875 293.067 547.798 293.29 547.65 293.43C547.519 293.555 547.302 293.614 546.998 293.608L540.376 293.457L540.334 295.305L545.013 295.411C545.317 295.418 545.531 295.495 545.656 295.642C545.797 295.773 545.864 295.99 545.857 296.294L545.799 298.862C545.792 299.166 545.715 299.388 545.567 299.529C545.437 299.654 545.219 299.713 544.915 299.706L540.236 299.6L540.19 301.663L546.812 301.813C547.116 301.82 547.33 301.897 547.455 302.044C547.596 302.175 547.663 302.393 547.656 302.697L547.592 305.504C547.586 305.808 547.508 306.03 547.361 306.171C547.23 306.296 547.013 306.355 546.709 306.348ZM557.273 306.588L553.674 306.506C553.37 306.499 553.148 306.43 553.007 306.299C552.882 306.152 552.823 305.927 552.83 305.623L553.183 290.075C553.19 289.771 553.259 289.557 553.39 289.432C553.537 289.291 553.762 289.224 554.066 289.231L556.562 289.287C556.866 289.294 557.121 289.348 557.326 289.449C557.548 289.55 557.76 289.723 557.963 289.967L562.497 295.4L562.613 290.289C562.619 289.985 562.688 289.771 562.819 289.645C562.966 289.505 563.192 289.438 563.496 289.445L567.095 289.526C567.399 289.533 567.613 289.61 567.738 289.757C567.879 289.888 567.946 290.106 567.939 290.41L567.586 305.958C567.58 306.262 567.502 306.484 567.355 306.625C567.224 306.75 567.007 306.809 566.703 306.802L563.104 306.72C562.8 306.713 562.578 306.644 562.437 306.513C562.312 306.366 562.253 306.141 562.26 305.837L562.327 302.886L558.337 297.826L558.157 305.744C558.15 306.048 558.073 306.27 557.926 306.411C557.795 306.536 557.577 306.595 557.273 306.588Z" fill="white"/>
</g>
</g>
<rect id="Rectangle 28" x="34" y="165" width="565" height="5" fill="#B72D23"/>
<path id="Rectangle 31" d="M0 601H625V605C625 607.209 623.209 609 621 609H3.99999C1.79085 609 0 607.209 0 605V601Z" fill="#9D948B"/>
</g>
</g>
<defs>
<filter id="filter0_n_16_21" x="0" y="0" width="625" height="609" filterUnits="userSpaceOnUse" color-interpolation-filters="sRGB">
<feFlood flood-opacity="0" result="BackgroundImageFix"/>
<feBlend mode="normal" in="SourceGraphic" in2="BackgroundImageFix" result="shape"/>
<feTurbulence type="fractalNoise" baseFrequency="2.5 2.5" stitchTiles="stitch" numOctaves="3" result="noise" seed="8226" />
<feComponentTransfer in="noise" result="coloredNoise1">
<feFuncR type="linear" slope="2" intercept="-0.5" />
<feFuncG type="linear" slope="2" intercept="-0.5" />
<feFuncB type="linear" slope="2" intercept="-0.5" />
<feFuncA type="discrete" tableValues="1 1 1 1 1 1 1 1 1 1 1 1 1 1 1 1 1 1 1 1 1 1 1 1 1 1 1 1 1 1 1 1 1 1 1 1 1 1 1 1 1 1 1 1 1 1 1 1 1 1 1 0 0 0 0 0 0 0 0 0 0 0 0 0 0 0 0 0 0 0 0 0 0 0 0 0 0 0 0 0 0 0 0 0 0 0 0 0 0 0 0 0 0 0 0 0 0 0 0 0 "/>
</feComponentTransfer>
<feComposite operator="in" in2="shape" in="coloredNoise1" result="noise1Clipped" />
<feComponentTransfer in="noise1Clipped" result="color1">
<feFuncA type="table" tableValues="0 0.15" />
</feComponentTransfer>
<feMerge result="effect1_noise_16_21">
<feMergeNode in="shape" />
<feMergeNode in="color1" />
</feMerge>
</filter>
<filter id="filter1_d_16_21" x="0" y="0" width="634.1" height="617.1" filterUnits="userSpaceOnUse" color-interpolation-filters="sRGB">
<feFlood flood-opacity="0" result="BackgroundImageFix"/>
<feColorMatrix in="SourceAlpha" type="matrix" values="0 0 0 0 0 0 0 0 0 0 0 0 0 0 0 0 0 0 127 0" result="hardAlpha"/>
<feOffset dx="7" dy="6"/>
<feGaussianBlur stdDeviation="1.05"/>
<feComposite in2="hardAlpha" operator="out"/>
<feColorMatrix type="matrix" values="0 0 0 0 0.514423 0 0 0 0 0.0941122 0 0 0 0 0.0643029 0 0 0 1 0"/>
<feBlend mode="normal" in2="BackgroundImageFix" result="effect1_dropShadow_16_21"/>
<feBlend mode="normal" in="SourceGraphic" in2="effect1_dropShadow_16_21" result="shape"/>
</filter>
<filter id="filter2_f_16_21" x="171" y="219" width="283" height="306" filterUnits="userSpaceOnUse" color-interpolation-filters="sRGB">
<feFlood flood-opacity="0" result="BackgroundImageFix"/>
<feBlend mode="normal" in="SourceGraphic" in2="BackgroundImageFix" result="shape"/>
<feGaussianBlur stdDeviation="2" result="effect1_foregroundBlur_16_21"/>
</filter>
<filter id="filter3_f_16_21" x="164.69" y="278.174" width="148.784" height="240.846" filterUnits="userSpaceOnUse" color-interpolation-filters="sRGB">
<feFlood flood-opacity="0" result="BackgroundImageFix"/>
<feBlend mode="normal" in="SourceGraphic" in2="BackgroundImageFix" result="shape"/>
<feGaussianBlur stdDeviation="4.6" result="effect1_foregroundBlur_16_21"/>
</filter>
<filter id="filter4_f_16_21" x="312.878" y="279.873" width="148.798" height="240.639" filterUnits="userSpaceOnUse" color-interpolation-filters="sRGB">
<feFlood flood-opacity="0" result="BackgroundImageFix"/>
<feBlend mode="normal" in="SourceGraphic" in2="BackgroundImageFix" result="shape"/>
<feGaussianBlur stdDeviation="4.6" result="effect1_foregroundBlur_16_21"/>
</filter>
<filter id="filter5_f_16_21" x="26.327" y="256.8" width="146.332" height="263.4" filterUnits="userSpaceOnUse" color-interpolation-filters="sRGB">
<feFlood flood-opacity="0" result="BackgroundImageFix"/>
<feBlend mode="normal" in="SourceGraphic" in2="BackgroundImageFix" result="shape"/>
<feGaussianBlur stdDeviation="4.6" result="effect1_foregroundBlur_16_21"/>
</filter>
<filter id="filter6_f_16_21" x="452.713" y="256.757" width="146.795" height="263.4" filterUnits="userSpaceOnUse" color-interpolation-filters="sRGB">
<feFlood flood-opacity="0" result="BackgroundImageFix"/>
<feBlend mode="normal" in="SourceGraphic" in2="BackgroundImageFix" result="shape"/>
<feGaussianBlur stdDeviation="4.6" result="effect1_foregroundBlur_16_21"/>
</filter>
<filter id="filter7_d_16_21" x="484.613" y="275.084" width="95.5371" height="44.73" filterUnits="userSpaceOnUse" color-interpolation-filters="sRGB">
<feFlood flood-opacity="0" result="BackgroundImageFix"/>
<feColorMatrix in="SourceAlpha" type="matrix" values="0 0 0 0 0 0 0 0 0 0 0 0 0 0 0 0 0 0 127 0" result="hardAlpha"/>
<feOffset dx="1" dy="1"/>
<feGaussianBlur stdDeviation="0.45"/>
<feComposite in2="hardAlpha" operator="out"/>
<feColorMatrix type="matrix" values="0 0 0 0 0 0 0 0 0 0 0 0 0 0 0 0 0 0 0.25 0"/>
<feBlend mode="normal" in2="BackgroundImageFix" result="effect1_dropShadow_16_21"/>
<feBlend mode="normal" in="SourceGraphic" in2="effect1_dropShadow_16_21" result="shape"/>
</filter>
<clipPath id="clip0_16_21">
<rect width="625" height="609" fill="white"/>
</clipPath>
</defs>
</svg>
